<?xml version="1.0" encoding="UTF-8" standalone="no"?>
<!-- Created with Inkscape (http://www.inkscape.org/) -->

<svg
   width="1375.1865"
   height="1283.8523"
   viewBox="0 0 363.85143 339.68592"
   version="1.1"
   id="svg1"
   inkscape:version="1.4 (86a8ad7, 2024-10-11)"
   sodipodi:docname="Alphabet Hangeulic Regular Vietnamese Glyphs.svg"
   xmlns:inkscape="http://www.inkscape.org/namespaces/inkscape"
   xmlns:sodipodi="http://sodipodi.sourceforge.net/DTD/sodipodi-0.dtd"
   xmlns="http://www.w3.org/2000/svg"
   xmlns:svg="http://www.w3.org/2000/svg">
  <sodipodi:namedview
     id="namedview1"
     pagecolor="#ffffff"
     bordercolor="#000000"
     borderopacity="0.25"
     inkscape:showpageshadow="2"
     inkscape:pageopacity="0.0"
     inkscape:pagecheckerboard="0"
     inkscape:deskcolor="#d1d1d1"
     inkscape:document-units="px"
     inkscape:zoom="0.60302261"
     inkscape:cx="725.51176"
     inkscape:cy="664.1542"
     inkscape:window-width="1920"
     inkscape:window-height="1027"
     inkscape:window-x="-8"
     inkscape:window-y="-8"
     inkscape:window-maximized="1"
     inkscape:current-layer="layer1" />
  <defs
     id="defs1" />
  <g
     inkscape:label="Layer 1"
     inkscape:groupmode="layer"
     id="layer1"
     transform="translate(45.057163,-55.887592)">
    <text
       xml:space="preserve"
       style="font-size:28.2222px;line-height:1.8;font-family:'BlockTrain Hand';-inkscape-font-specification:'BlockTrain Hand';text-align:start;letter-spacing:2.64583px;writing-mode:lr-tb;direction:ltr;text-anchor:start;display:none;fill:#19919b;fill-opacity:1;stroke:#7c7c7c;stroke-width:0.79375;stroke-dasharray:none;stroke-opacity:1"
       x="138.19148"
       y="88.739998"
       id="text1"><tspan
         style="font-style:normal;font-variant:normal;font-weight:normal;font-stretch:normal;font-size:28.2222px;line-height:1.8;font-family:'NewEng Hangeul';-inkscape-font-specification:'NewEng Hangeul';text-align:center;letter-spacing:2.64583px;text-anchor:middle;fill:#19919b;fill-opacity:1;stroke:#7c7c7c;stroke-width:0.79375;stroke-dasharray:none;stroke-opacity:1"
         x="138.19148"
         y="88.739998"
         sodipodi:role="line"
         id="tspan64">aâăeêioôơuưy</tspan><tspan
         style="font-style:normal;font-variant:normal;font-weight:normal;font-stretch:normal;font-size:28.2222px;line-height:1.8;font-family:'NewEng Hangeul';-inkscape-font-specification:'NewEng Hangeul';text-align:center;letter-spacing:2.64583px;text-anchor:middle;fill:#19919b;fill-opacity:1;stroke:#7c7c7c;stroke-width:0.79375;stroke-dasharray:none;stroke-opacity:1"
         x="138.19148"
         y="139.53996"
         sodipodi:role="line"
         id="tspan22">áấắéếíóốớúứý</tspan><tspan
         style="font-style:normal;font-variant:normal;font-weight:normal;font-stretch:normal;font-size:28.2222px;line-height:1.8;font-family:'NewEng Hangeul';-inkscape-font-specification:'NewEng Hangeul';text-align:center;letter-spacing:2.64583px;text-anchor:middle;fill:#19919b;fill-opacity:1;stroke:#7c7c7c;stroke-width:0.79375;stroke-dasharray:none;stroke-opacity:1"
         x="138.19148"
         y="190.33992"
         sodipodi:role="line"
         id="tspan23">àầằèềìòồờùừỳ</tspan><tspan
         style="font-style:normal;font-variant:normal;font-weight:normal;font-stretch:normal;font-size:28.2222px;line-height:1.8;font-family:'NewEng Hangeul';-inkscape-font-specification:'NewEng Hangeul';text-align:center;letter-spacing:2.64583px;text-anchor:middle;fill:#19919b;fill-opacity:1;stroke:#7c7c7c;stroke-width:0.79375;stroke-dasharray:none;stroke-opacity:1"
         x="138.19148"
         y="241.13988"
         sodipodi:role="line"
         id="tspan24">ảẩẳẻểỉỏổởủửỷ</tspan><tspan
         style="font-style:normal;font-variant:normal;font-weight:normal;font-stretch:normal;font-size:28.2222px;line-height:1.8;font-family:'NewEng Hangeul';-inkscape-font-specification:'NewEng Hangeul';text-align:center;letter-spacing:2.64583px;text-anchor:middle;fill:#19919b;fill-opacity:1;stroke:#7c7c7c;stroke-width:0.79375;stroke-dasharray:none;stroke-opacity:1"
         x="138.19148"
         y="291.93985"
         sodipodi:role="line"
         id="tspan25">ãẫẵẽễĩõỗỡũữỹ</tspan><tspan
         style="font-style:normal;font-variant:normal;font-weight:normal;font-stretch:normal;font-size:28.2222px;line-height:1.8;font-family:'NewEng Hangeul';-inkscape-font-specification:'NewEng Hangeul';text-align:center;letter-spacing:2.64583px;text-anchor:middle;fill:#19919b;fill-opacity:1;stroke:#7c7c7c;stroke-width:0.79375;stroke-dasharray:none;stroke-opacity:1"
         x="138.19148"
         y="342.73981"
         sodipodi:role="line"
         id="tspan26">ạậặẹệịọộợụựỵ</tspan><tspan
         style="font-style:normal;font-variant:normal;font-weight:normal;font-stretch:normal;font-size:28.2222px;line-height:1.8;font-family:'NewEng Hangeul';-inkscape-font-specification:'NewEng Hangeul';text-align:center;letter-spacing:2.64583px;text-anchor:middle;fill:#19919b;fill-opacity:1;stroke:#7c7c7c;stroke-width:0.79375;stroke-dasharray:none;stroke-opacity:1"
         x="139.5144"
         y="393.53976"
         sodipodi:role="line"
         id="tspan36">đ</tspan></text>
    <g
       id="text60"
       style="font-size:28.2222px;line-height:1.8;font-family:'BlockTrain Hand';-inkscape-font-specification:'BlockTrain Hand';letter-spacing:2.64583px;fill:#19919b;stroke:#7c7c7c;stroke-width:0.79375"
       aria-label="aâăeêioôơuưy&#10;áấắéếíóốớúứý&#10;àầằèềìòồờùừỳ&#10;ảẩẳẻểỉỏổởủửỷ&#10;ãẫẵẽễĩõỗỡũữỹ&#10;ạậặẹệịọộợụựỵ&#10;đ">
      <path
         style="font-family:'NewEng Hangeul';-inkscape-font-specification:'NewEng Hangeul';text-align:center;text-anchor:middle"
         d="m -41.132513,88.006221 v -8.099772 h 15.52221 l 1.890888,-1.608665 v 11.204213 l 0.705555,0.874888 2.82222,-2.370664 V 67.065348 l -0.733778,-0.874888 h -18.316208 l -1.890887,1.608665 v -0.733777 l -0.733777,-0.874888 -2.793998,2.370665 v 20.940872 l 0.705555,0.874888 z m 0,-18.59843 h 17.413098 v 7.253105 h -15.522211 l -1.890887,1.608666 z M 0.0930927,59.276021 c 0,-0.02822 -0.0282222,-0.08467 -0.0282222,-0.112889 L -0.47135131,58.514021 C -3.6040156,59.840465 -6.7366798,60.54602 -6.7366798,60.54602 l -2.5964424,2.173109 0.5362218,0.649111 c 0,0 3.0762198,-0.705555 6.1524397,-2.003777 l 0.3668886,0.423333 c 0.987777,1.185333 4.2615522,1.523999 4.2615522,1.523999 L 4.5804226,61.138686 4.0442008,60.489575 c 0,0 -2.7093313,-0.282222 -3.9511081,-1.213554 z m -11.2888797,28.7302 V 79.906449 H 4.3264228 l 1.8908874,-1.608665 v 11.204213 l 0.705555,0.874888 2.82222,-2.370664 V 67.065348 L 9.011308,66.19046 H -9.3049 l -1.890887,1.608665 v -0.733777 l -0.733778,-0.874888 -2.793998,2.370665 v 20.940872 l 0.705556,0.874888 z m 0,-18.59843 H 6.2173102 v 7.253105 H -9.3049 l -1.890887,1.608666 z M 28.25182,63.396462 c 1.495776,0 2.850442,-0.479777 3.809997,-1.269999 l 2.596442,-2.17311 c 0.874888,-0.761999 1.439332,-1.80622 1.439332,-3.019775 l -0.564444,-0.649111 -2.596442,2.17311 c 0,0.620888 -0.141111,1.213554 -0.395111,1.721554 -0.677333,0.254 -1.439332,0.395111 -2.229554,0.395111 0,0 -0.479777,0 -0.64911,0 -1.467555,0 -2.765776,-0.536222 -3.640664,-1.354666 -0.338667,-0.507999 -0.508,-1.072443 -0.508,-1.693332 l -0.564444,-0.64911 -2.596442,2.173109 c 0,0.761999 0.282222,1.439332 0.790221,2.031998 l 0.536222,0.649111 c 0.846666,1.015999 2.285998,1.66511 3.922886,1.66511 0.169333,0 0.649111,0 0.649111,0 z m -6.462884,23.791315 v -5.926662 h 12.925768 l 1.439332,-1.213555 v 10.272881 l 1.15711,1.41111 5.418662,-4.543774 V 66.246904 l -1.185332,-1.41111 H 23.228268 l -1.552221,1.298221 -1.072444,-1.298221 -5.39044,4.543774 v 20.940873 l 1.15711,1.41111 z m 0,-16.397099 h 14.3651 V 75.30623 H 23.228268 l -1.439332,1.213555 z m 27.1145,-1.382887 h 1.382888 l -2.088443,1.777998 v 18.316208 l 0.705555,0.874888 h 20.940873 l 2.82222,-2.370664 -0.733777,-0.874889 H 51.725656 V 79.906449 H 64.623202 L 67.4172,77.535784 66.711645,76.660896 H 53.334322 l -1.608666,1.354666 v -8.325549 l -0.225777,-0.282222 h 18.34443 l 2.82222,-2.342443 -0.733777,-0.874888 H 50.991879 l -2.793998,2.370665 z m 44.047822,-10.13177 c 0,-0.02822 -0.02822,-0.08467 -0.02822,-0.112889 l -0.536222,-0.649111 c -3.132664,1.326444 -6.265328,2.031999 -6.265328,2.031999 l -2.596442,2.173109 0.536221,0.649111 c 0,0 3.07622,-0.705555 6.15244,-2.003777 l 0.366889,0.423333 c 0.987777,1.185333 4.261552,1.523999 4.261552,1.523999 l 2.596442,-2.173109 -0.536222,-0.649111 c 0,0 -2.709331,-0.282222 -3.951108,-1.213554 z m -14.1111,10.13177 h 1.382888 l -2.088443,1.777998 v 18.316208 l 0.705555,0.874888 h 20.940873 l 2.822219,-2.370664 -0.73378,-0.874889 H 81.662378 v -7.224883 h 12.897546 l 2.793998,-2.370665 -0.705555,-0.874888 H 83.271044 l -1.608666,1.354666 v -8.325549 l -0.225777,-0.282222 h 18.34443 l 2.822219,-2.342443 -0.73378,-0.874888 H 80.928601 l -2.793998,2.370665 z m 29.936722,0 h 11.65577 l -1.94733,1.636887 v 15.832655 l 0.22577,0.253999 h -7.84577 l -2.79399,2.370665 0.70555,0.874888 h 20.94087 l 2.82222,-2.370664 -0.73377,-0.874889 h -11.85333 l 2.08844,-1.749776 V 69.548902 l -0.11288,-0.141111 h 7.78932 l 2.82222,-2.342443 -0.73377,-0.874888 h -20.94088 l -2.79399,2.370665 z m 29.23118,6.999105 v 5.24933 c 0,3.753552 0,5.700884 0.84667,6.716883 l 0.73378,0.874888 c 0.93133,1.128888 2.87866,1.128888 6.9991,1.128888 h 5.22111 c 3.75355,0 5.7291,0 6.7451,-0.874888 l 2.794,-2.342442 c 1.12889,-0.959555 1.12889,-2.906887 1.12889,-6.999106 V 74.91112 c 0,-3.753553 0,-5.700885 -0.84667,-6.745106 l -0.73377,-0.846666 c -0.93134,-1.128888 -2.90689,-1.128888 -6.99911,-1.128888 h -5.24933 c -3.75355,0 -5.70088,0 -6.71688,0.874888 l -2.82222,2.342443 c -1.10067,0.931332 -1.10067,2.906886 -1.10067,6.999105 z m 3.52778,-1.495776 c 0,-2.483554 0,-4.176886 0.254,-5.333996 1.12888,0 2.65288,-0.169333 4.79777,-0.169333 h 5.22111 c 3.58422,0 5.53155,0 6.57577,0.761999 0,1.100666 0.56444,3.019775 0.56444,6.237106 v 5.24933 c 0,2.483553 0,4.176885 -0.254,5.333995 -1.12888,0 -2.6811,0.141111 -4.79777,0.141111 h -5.24933 c -3.556,0 -5.50333,0 -6.57577,-0.733777 0,-1.128888 -0.53622,-3.019775 -0.53622,-6.237106 z m 41.2256,-15.635099 c 0,-0.02822 -0.0282,-0.08467 -0.0282,-0.112889 L 182.197,58.514021 c -3.13267,1.326444 -6.26533,2.031999 -6.26533,2.031999 l -2.59645,2.173109 0.53623,0.649111 c 0,0 3.07622,-0.705555 6.15244,-2.003777 l 0.36688,0.423333 c 0.98778,1.185333 4.26156,1.523999 4.26156,1.523999 l 2.59644,-2.173109 -0.53622,-0.649111 c 0,0 -2.70933,-0.282222 -3.95111,-1.213554 z m -14.81666,17.130875 v 5.24933 c 0,3.753552 0,5.700884 0.84667,6.716883 l 0.73378,0.874888 c 0.93133,1.128888 2.87866,1.128888 6.9991,1.128888 h 5.22111 c 3.75355,0 5.72911,0 6.74511,-0.874888 l 2.79399,-2.342442 c 1.12889,-0.959555 1.12889,-2.906887 1.12889,-6.999106 V 74.91112 c 0,-3.753553 0,-5.700885 -0.84666,-6.745106 l -0.73378,-0.846666 C 189.90166,66.19046 187.9261,66.19046 183.83388,66.19046 h -5.24933 c -3.75355,0 -5.70088,0 -6.71688,0.874888 l -2.82222,2.342443 c -1.10067,0.931332 -1.10067,2.906886 -1.10067,6.999105 z m 3.52778,-1.495776 c 0,-2.483554 0,-4.176886 0.254,-5.333996 1.12889,0 2.65289,-0.169333 4.79777,-0.169333 h 5.22111 c 3.58422,0 5.53155,0 6.57577,0.761999 0,1.100666 0.56445,3.019775 0.56445,6.237106 v 5.24933 c 0,2.483553 0,4.176885 -0.254,5.333995 -1.12889,0 -2.68111,0.141111 -4.79778,0.141111 h -5.24933 c -3.55599,0 -5.50333,0 -6.57577,-0.733777 0,-1.128888 -0.53622,-3.019775 -0.53622,-6.237106 z m 32.98472,-0.818444 c 0,-1.298221 0,-2.398887 0.0282,-3.301998 0.70556,0 1.524,0 2.42711,0 h 5.22111 c 3.24555,0 5.16466,0 6.29355,0.536222 0,1.15711 0.39511,2.991553 0.39511,5.89844 v 5.249329 c 0,1.298222 0,2.398887 -0.0565,3.301998 -0.70555,0 -1.49577,0 -2.39888,0 h -5.24933 c -3.24556,0 -5.16466,0 -6.26533,-0.564444 0,-1.128888 -0.39511,-2.963331 -0.39511,-5.870218 z m -6.57577,3.132664 v 5.249329 c 0,3.753553 0,5.700885 0.84666,6.716884 l 1.18533,1.41111 c 0.93134,1.128888 2.87867,1.128888 6.99911,1.128888 h 5.22111 c 3.75355,0 5.7291,0 6.7451,-0.874888 l 5.39044,-4.515552 c 1.12889,-0.959555 1.12889,-2.906887 1.12889,-6.999106 v -5.249329 c 0,-3.753553 0,-5.700885 -0.84666,-6.745106 l -0.19756,-0.197555 c 1.97555,-1.636888 3.92289,-3.273776 5.87022,-4.910663 v -3.386664 l -1.18534,-1.41111 -5.39044,4.543774 v 3.358442 l -0.47977,0.395111 c -1.016,0 -2.99156,-0.903111 -6.80155,-0.903111 h -5.24933 c -3.75355,0 -5.70089,0 -6.71689,0.874888 l -5.41866,4.515552 c -1.10066,0.931333 -1.10066,2.906887 -1.10066,6.999106 z M 251.8071,68.561125 V 87.131332 H 234.39401 V 67.065348 l -0.73378,-0.874888 -2.794,2.370665 v 20.940872 l 0.70556,0.874888 h 18.34443 l 1.89088,-1.608665 v 0.733777 l 0.70556,0.874888 2.82222,-2.370664 V 67.065348 L 254.6011,66.19046 Z m 8.99584,0.818443 v 20.940873 l 1.15711,1.41111 h 18.34443 l 1.524,-1.298221 1.07244,1.298221 5.41866,-4.543774 V 66.275126 c 1.60867,-1.326443 3.21733,-2.681109 4.826,-4.035774 v -3.386664 l -1.18533,-1.41111 -5.39044,4.543774 v 3.33022 l -4.826,4.063996 v 16.397099 h -14.3651 V 66.246904 l -1.18533,-1.41111 z m 57.59447,-2.144887 h -3.66889 l -9.42621,9.426215 h -7.93044 v -9.595548 l -0.73378,-0.874888 -2.794,2.370665 v 10.470436 l 0.73378,0.874888 h 7.47888 l -8.2691,8.269105 v 1.128888 h 3.66888 l 20.94088,-20.940873 z"
         id="path60" />
      <path
         style="font-family:'NewEng Hangeul';-inkscape-font-specification:'NewEng Hangeul';text-align:center;text-anchor:middle"
         d="m -37.999849,114.47864 c 2.82222,-0.28222 6.999106,-1.60866 8.918215,-2.70933 l 2.596443,-2.17311 -0.536222,-0.64911 c -1.91911,1.10067 -6.095995,2.39889 -8.946437,2.70933 l -2.568221,2.17311 z m -3.132664,24.32754 v -8.09977 h 15.52221 l 1.890888,-1.60867 v 11.20422 l 0.705555,0.87488 2.82222,-2.37066 v -20.94087 l -0.733778,-0.87489 h -18.316208 l -1.890887,1.60866 v -0.73377 l -0.733777,-0.87489 -2.793998,2.37066 v 20.94088 l 0.705555,0.87488 z m 0,-18.59843 h 17.413098 v 7.25311 h -15.522211 l -1.890887,1.60866 z M 0.0930927,110.07598 c 0,-0.0282 -0.0282222,-0.0847 -0.0282222,-0.11289 l -0.53622181,-0.64911 c -3.13266429,1.32644 -6.26532849,2.032 -6.26532849,2.032 l -2.5964424,2.17311 0.5362218,0.64911 c 0,0 3.0762198,-0.70556 6.1524397,-2.00378 l 0.3668886,0.42334 c 0.987777,1.18533 4.2615522,1.52399 4.2615522,1.52399 l 2.5964425,-2.1731 -0.5362218,-0.64912 c 0,0 -2.7093313,-0.28222 -3.9511081,-1.21355 z m -11.2888797,28.7302 v -8.09977 H 4.3264228 l 1.8908874,-1.60867 v 11.20422 l 0.705555,0.87488 2.82222,-2.37066 V 117.86531 L 9.011308,116.99042 H -9.3049 l -1.890887,1.60866 v -0.73377 l -0.733778,-0.87489 -2.793998,2.37066 v 20.94088 l 0.705556,0.87488 z m 0,-18.59843 H 6.2173102 v 7.25311 H -9.3049 l -1.890887,1.60866 z m 6.3146996,-11.88154 c 2.82222,-0.31044 6.9991057,-1.63689 8.9182153,-2.70933 l 2.5964424,-2.20133 -0.5362218,-0.64911 c -1.9191096,1.10066 -6.09599527,2.42711 -8.9182153,2.70933 l -2.5964424,2.20133 z m 33.1329074,5.87021 c 1.495776,0 2.850442,-0.47978 3.809997,-1.27 l 2.596442,-2.17311 c 0.874888,-0.762 1.439332,-1.80622 1.439332,-3.01977 l -0.564444,-0.64911 -2.596442,2.17311 c 0,0.62088 -0.141111,1.21355 -0.395111,1.72155 -0.677333,0.254 -1.439332,0.39511 -2.229554,0.39511 0,0 -0.479777,0 -0.64911,0 -1.467555,0 -2.765776,-0.53622 -3.640664,-1.35466 -0.338667,-0.508 -0.508,-1.07245 -0.508,-1.69334 l -0.564444,-0.64911 -2.596442,2.17311 c 0,0.762 0.282222,1.43933 0.790221,2.032 l 0.536222,0.64911 c 0.846666,1.016 2.285998,1.66511 3.922886,1.66511 0.169333,0 0.649111,0 0.649111,0 z m -6.462884,23.79132 v -5.92667 h 12.925768 l 1.439332,-1.21355 v 10.27288 l 1.15711,1.41111 5.418662,-4.54377 v -20.94088 l -1.185332,-1.41111 H 23.228268 l -1.552221,1.29822 -1.072444,-1.29822 -5.39044,4.54378 v 20.94087 l 1.15711,1.41111 z m 0,-16.3971 h 14.3651 v 4.51555 H 23.228268 l -1.439332,1.21355 z m 5.157629,-8.15622 c 2.82222,-0.31044 6.999105,-1.63689 8.918215,-2.70933 l 2.596442,-2.20133 -0.536222,-0.64911 c -1.919109,1.10066 -6.095995,2.42711 -8.918215,2.70933 l -2.596442,2.20133 z m 27.911756,1.04422 c 2.82222,-0.28222 6.999105,-1.60866 8.918215,-2.70933 l 2.596442,-2.17311 -0.536221,-0.64911 c -1.91911,1.10067 -6.095996,2.39889 -8.946438,2.70933 l -2.56822,2.17311 z m -5.954885,5.72911 h 1.382888 l -2.088443,1.778 v 18.31621 l 0.705555,0.87488 h 20.940873 l 2.82222,-2.37066 -0.733777,-0.87489 H 51.725656 v -7.22488 h 12.897546 l 2.793998,-2.37067 -0.705555,-0.87488 H 53.334322 l -1.608666,1.35466 v -8.32555 l -0.225777,-0.28222 h 18.34443 l 2.82222,-2.34244 -0.733777,-0.87489 H 50.991879 l -2.793998,2.37066 z m 44.047822,-10.13177 c 0,-0.0282 -0.02822,-0.0847 -0.02822,-0.11289 l -0.536222,-0.64911 c -3.132664,1.32644 -6.265328,2.032 -6.265328,2.032 l -2.596442,2.17311 0.536221,0.64911 c 0,0 3.07622,-0.70556 6.15244,-2.00378 l 0.366889,0.42334 c 0.987777,1.18533 4.261552,1.52399 4.261552,1.52399 l 2.596442,-2.1731 -0.536222,-0.64912 c 0,0 -2.709331,-0.28222 -3.951108,-1.21355 z m -14.1111,10.13177 h 1.382888 l -2.088443,1.778 v 18.31621 l 0.705555,0.87488 h 20.940873 l 2.822219,-2.37066 -0.73378,-0.87489 H 81.662378 v -7.22488 h 12.897546 l 2.793998,-2.37067 -0.705555,-0.87488 H 83.271044 l -1.608666,1.35466 v -8.32555 l -0.225777,-0.28222 h 18.34443 l 2.822219,-2.34244 -0.73378,-0.87489 H 80.928601 l -2.793998,2.37066 z m 9.136924,-11.88154 c 2.82222,-0.31044 6.999106,-1.63689 8.918215,-2.70933 l 2.596443,-2.20133 -0.536222,-0.64911 c -1.91911,1.10066 -6.095995,2.42711 -8.918215,2.70933 l -2.596443,2.20133 z m 26.754678,6.12421 c 2.85045,-0.28222 7.02733,-1.60866 8.94644,-2.70933 l 2.59644,-2.17311 -0.56444,-0.64911 c -1.91911,1.10067 -6.096,2.42711 -8.91822,2.70933 l -2.59644,2.17311 z m -5.95488,5.75733 h 11.65577 l -1.94733,1.63689 v 15.83265 l 0.22577,0.254 h -7.84577 l -2.79399,2.37067 0.70555,0.87488 h 20.94087 l 2.82222,-2.37066 -0.73377,-0.87489 h -11.85333 l 2.08844,-1.74977 v -15.83266 l -0.11288,-0.14111 h 7.78932 l 2.82222,-2.34244 -0.73377,-0.87489 h -20.94088 l -2.79399,2.37066 z m 35.89162,-5.72911 c 2.82222,-0.28222 6.99911,-1.60866 8.91822,-2.70933 l 2.59644,-2.17311 -0.53622,-0.64911 c -1.91911,1.10067 -6.096,2.39889 -8.94644,2.70933 l -2.56822,2.17311 z m -6.66044,12.72822 v 5.24932 c 0,3.75356 0,5.70089 0.84667,6.71689 l 0.73378,0.87489 c 0.93133,1.12888 2.87866,1.12888 6.9991,1.12888 h 5.22111 c 3.75355,0 5.7291,0 6.7451,-0.87488 l 2.794,-2.34245 c 1.12889,-0.95955 1.12889,-2.90688 1.12889,-6.9991 v -5.24933 c 0,-3.75355 0,-5.70089 -0.84667,-6.74511 l -0.73377,-0.84666 c -0.93134,-1.12889 -2.90689,-1.12889 -6.99911,-1.12889 h -5.24933 c -3.75355,0 -5.70088,0 -6.71688,0.87489 l -2.82222,2.34244 c -1.10067,0.93133 -1.10067,2.90689 -1.10067,6.99911 z m 3.52778,-1.49578 c 0,-2.48355 0,-4.17689 0.254,-5.334 1.12888,0 2.65288,-0.16933 4.79777,-0.16933 h 5.22111 c 3.58422,0 5.53155,0 6.57577,0.762 0,1.10067 0.56444,3.01977 0.56444,6.23711 v 5.24932 c 0,2.48356 0,4.17689 -0.254,5.334 -1.12888,0 -2.6811,0.14111 -4.79777,0.14111 h -5.24933 c -3.556,0 -5.50333,0 -6.57577,-0.73378 0,-1.12888 -0.53622,-3.01977 -0.53622,-6.2371 z m 41.2256,-15.6351 c 0,-0.0282 -0.0282,-0.0847 -0.0282,-0.11289 l -0.53622,-0.64911 c -3.13267,1.32644 -6.26533,2.032 -6.26533,2.032 l -2.59645,2.17311 0.53623,0.64911 c 0,0 3.07622,-0.70556 6.15244,-2.00378 l 0.36688,0.42334 c 0.98778,1.18533 4.26156,1.52399 4.26156,1.52399 l 2.59644,-2.1731 -0.53622,-0.64912 c 0,0 -2.70933,-0.28222 -3.95111,-1.21355 z m -14.81666,17.13088 v 5.24932 c 0,3.75356 0,5.70089 0.84667,6.71689 l 0.73378,0.87489 c 0.93133,1.12888 2.87866,1.12888 6.9991,1.12888 h 5.22111 c 3.75355,0 5.72911,0 6.74511,-0.87488 l 2.79399,-2.34245 c 1.12889,-0.95955 1.12889,-2.90688 1.12889,-6.9991 v -5.24933 c 0,-3.75355 0,-5.70089 -0.84666,-6.74511 l -0.73378,-0.84666 c -0.93133,-1.12889 -2.90689,-1.12889 -6.99911,-1.12889 h -5.24933 c -3.75355,0 -5.70088,0 -6.71688,0.87489 l -2.82222,2.34244 c -1.10067,0.93133 -1.10067,2.90689 -1.10067,6.99911 z m 3.52778,-1.49578 c 0,-2.48355 0,-4.17689 0.254,-5.334 1.12889,0 2.65289,-0.16933 4.79777,-0.16933 h 5.22111 c 3.58422,0 5.53155,0 6.57577,0.762 0,1.10067 0.56445,3.01977 0.56445,6.23711 v 5.24932 c 0,2.48356 0,4.17689 -0.254,5.334 -1.12889,0 -2.68111,0.14111 -4.79778,0.14111 h -5.24933 c -3.55599,0 -5.50333,0 -6.57577,-0.73378 0,-1.12888 -0.53622,-3.01977 -0.53622,-6.2371 z m 6.3147,-17.38487 c 2.82222,-0.31044 6.99911,-1.63689 8.91822,-2.70933 l 2.59644,-2.20133 -0.53622,-0.64911 c -1.91911,1.10066 -6.096,2.42711 -8.91822,2.70933 l -2.59644,2.20133 z m 26.67002,16.56643 c 0,-1.29823 0,-2.39889 0.0282,-3.302 0.70556,0 1.524,0 2.42711,0 h 5.22111 c 3.24555,0 5.16466,0 6.29355,0.53622 0,1.15711 0.39511,2.99155 0.39511,5.89844 v 5.24933 c 0,1.29822 0,2.39889 -0.0565,3.302 -0.70555,0 -1.49577,0 -2.39888,0 h -5.24933 c -3.24556,0 -5.16466,0 -6.26533,-0.56445 0,-1.12889 -0.39511,-2.96333 -0.39511,-5.87022 z m -6.57577,3.13266 v 5.24933 c 0,3.75355 0,5.70088 0.84666,6.71688 l 1.18533,1.41111 c 0.93134,1.12889 2.87867,1.12889 6.99911,1.12889 h 5.22111 c 3.75355,0 5.7291,0 6.7451,-0.87489 l 5.39044,-4.51555 c 1.12889,-0.95955 1.12889,-2.90689 1.12889,-6.99911 v -5.24932 c 0,-3.75356 0,-5.70089 -0.84666,-6.74511 l -0.19756,-0.19756 c 1.97555,-1.63688 3.92289,-3.27377 5.87022,-4.91066 v -3.38666 l -1.18534,-1.41111 -5.39044,4.54377 v 3.35844 l -0.47977,0.39511 c -1.016,0 -2.99156,-0.90311 -6.80155,-0.90311 h -5.24933 c -3.75355,0 -5.70089,0 -6.71689,0.87489 l -5.41866,4.51555 c -1.10066,0.93134 -1.10066,2.90689 -1.10066,6.99911 z m 11.7334,-14.59088 c 2.82222,-0.31044 6.99911,-1.63689 8.91822,-2.70933 l 2.59644,-2.20133 -0.53622,-0.64911 c -1.91911,1.10066 -6.09599,2.42711 -8.91821,2.70933 l -2.59645,2.20133 z m 27.91176,1.04422 c 2.82222,-0.28222 6.99911,-1.60866 8.91822,-2.70933 l 2.59644,-2.17311 -0.53622,-0.64911 c -1.91911,1.10067 -6.096,2.39889 -8.94644,2.70933 l -2.56822,2.17311 z m 14.28043,4.88244 v 18.57021 h -17.41309 v -20.06598 l -0.73378,-0.87489 -2.794,2.37066 v 20.94088 l 0.70556,0.87488 h 18.34443 l 1.89088,-1.60866 v 0.73378 l 0.70556,0.87488 2.82222,-2.37066 v -20.94087 l -0.73378,-0.87489 z m 8.99584,0.81845 v 20.94087 l 1.15711,1.41111 h 18.34443 l 1.524,-1.29822 1.07244,1.29822 5.41866,-4.54377 v -20.91265 c 1.60867,-1.32645 3.21733,-2.68111 4.826,-4.03578 v -3.38666 l -1.18533,-1.41111 -5.39044,4.54377 v 3.33022 l -4.826,4.064 v 16.3971 h -14.3651 v -19.52977 l -1.18533,-1.41111 z m 11.73339,-6.74511 c 2.82222,-0.31044 6.99911,-1.63689 8.91822,-2.70933 l 2.59644,-2.20133 -0.53622,-0.64911 c -1.91911,1.10066 -6.096,2.42711 -8.91822,2.70933 l -2.59644,2.20133 z m 27.91176,1.04422 c 2.82222,-0.28222 6.9991,-1.60866 8.91821,-2.70933 l 2.59645,-2.17311 -0.53623,-0.64911 c -1.91911,1.10067 -6.09599,2.39889 -8.94643,2.70933 l -2.56822,2.17311 z m 17.94932,3.556 h -3.66889 l -9.42621,9.42622 h -7.93044 v -9.59555 l -0.73378,-0.87489 -2.794,2.37066 v 10.47044 l 0.73378,0.87489 h 7.47888 l -8.2691,8.2691 v 1.12889 h 3.66888 l 20.94088,-20.94087 z"
         id="path61" />
      <path
         style="font-family:'NewEng Hangeul';-inkscape-font-specification:'NewEng Hangeul';text-align:center;text-anchor:middle"
         d="m -26.908524,162.45638 c -0.508,-0.39511 -2.624665,-1.83444 -8.918215,-2.70933 l -2.596443,2.17311 0.536222,0.64911 c 6.321773,0.87489 8.410216,2.31422 8.918215,2.70933 l 2.596443,-2.17311 z m -14.223989,27.14976 v -8.09977 h 15.52221 l 1.890888,-1.60867 v 11.20422 l 0.705555,0.87488 2.82222,-2.37066 v -20.94087 l -0.733778,-0.87489 h -18.316208 l -1.890887,1.60866 v -0.73377 l -0.733777,-0.87489 -2.793998,2.37066 v 20.94088 l 0.705555,0.87488 z m 0,-18.59843 h 17.413098 v 7.2531 h -15.522211 l -1.890887,1.60867 z M 0.0930927,160.87594 c 0,-0.0282 -0.0282222,-0.0847 -0.0282222,-0.11289 l -0.53622181,-0.64911 c -3.13266429,1.32644 -6.26532849,2.032 -6.26532849,2.032 l -2.5964424,2.17311 0.5362218,0.64911 c 0,0 3.0762198,-0.70556 6.1524397,-2.00378 l 0.3668886,0.42334 c 0.987777,1.18533 4.2615522,1.52399 4.2615522,1.52399 l 2.5964425,-2.17311 -0.5362218,-0.64911 c 0,0 -2.7093313,-0.28222 -3.9511081,-1.21355 z m -11.2888797,28.7302 v -8.09977 H 4.3264228 l 1.8908874,-1.60867 v 11.20422 l 0.705555,0.87488 2.82222,-2.37066 V 168.66527 L 9.011308,167.79038 H -9.3049 l -1.890887,1.60866 v -0.73377 l -0.733778,-0.87489 -2.793998,2.37066 v 20.94088 l 0.705556,0.87488 z m 0,-18.59843 H 6.2173102 v 7.2531 H -9.3049 l -1.890887,1.60867 z M 6.2102373,156.27573 C 5.7022377,155.88062 3.6137949,154.46951 -2.707978,153.5664 l -2.5964424,2.20133 0.5362218,0.64911 c 6.3217728,0.87489 8.4102157,2.286 8.9182153,2.70933 l 2.5964424,-2.20133 z m 22.0415827,8.72065 c 1.495776,0 2.850442,-0.47978 3.809997,-1.27 l 2.596442,-2.17311 c 0.874888,-0.762 1.439332,-1.80622 1.439332,-3.01977 l -0.564444,-0.64911 -2.596442,2.17311 c 0,0.62088 -0.141111,1.21355 -0.395111,1.72155 -0.677333,0.254 -1.439332,0.39511 -2.229554,0.39511 0,0 -0.479777,0 -0.64911,0 -1.467555,0 -2.765776,-0.53622 -3.640664,-1.35467 -0.338667,-0.50799 -0.508,-1.07244 -0.508,-1.69333 l -0.564444,-0.64911 -2.596442,2.17311 c 0,0.762 0.282222,1.43933 0.790221,2.032 l 0.536222,0.64911 c 0.846666,1.016 2.285998,1.66511 3.922886,1.66511 0.169333,0 0.649111,0 0.649111,0 z m -6.462884,23.79132 v -5.92667 h 12.925768 l 1.439332,-1.21355 v 10.27288 l 1.15711,1.41111 5.418662,-4.54377 v -20.94088 l -1.185332,-1.41111 H 23.228268 l -1.552221,1.29822 -1.072444,-1.29822 -5.39044,4.54378 v 20.94087 l 1.15711,1.41111 z m 0,-16.3971 h 14.3651 v 4.51555 H 23.228268 l -1.439332,1.21355 z m 16.248953,-11.00666 c -0.507999,-0.39511 -2.596442,-1.80622 -8.918215,-2.70933 l -2.596442,2.20133 0.536221,0.64911 c 6.321773,0.87489 8.410216,2.286 8.918216,2.70933 l 2.596442,-2.20133 z m 27.911756,1.07244 c -0.507999,-0.39511 -2.624664,-1.83444 -8.918215,-2.70933 l -2.596442,2.17311 0.536222,0.64911 c 6.321772,0.87489 8.410215,2.31422 8.918215,2.70933 l 2.596442,-2.17311 z m -17.046209,8.55133 h 1.382888 l -2.088443,1.778 v 18.31621 l 0.705555,0.87488 h 20.940873 l 2.82222,-2.37066 -0.733777,-0.87489 H 51.725656 v -7.22488 H 64.623202 L 67.4172,179.1357 66.711645,178.26081 H 53.334322 l -1.608666,1.35467 v -8.32555 l -0.225777,-0.28222 h 18.34443 l 2.82222,-2.34244 -0.733777,-0.87489 H 50.991879 l -2.793998,2.37066 z m 44.047822,-10.13177 c 0,-0.0282 -0.02822,-0.0847 -0.02822,-0.11289 l -0.536222,-0.64911 c -3.132664,1.32644 -6.265328,2.032 -6.265328,2.032 l -2.596442,2.17311 0.536221,0.64911 c 0,0 3.07622,-0.70556 6.15244,-2.00378 l 0.366889,0.42334 c 0.987777,1.18533 4.261552,1.52399 4.261552,1.52399 l 2.596442,-2.17311 -0.536222,-0.64911 c 0,0 -2.709331,-0.28222 -3.951108,-1.21355 z m -14.1111,10.13177 h 1.382888 l -2.088443,1.778 v 18.31621 l 0.705555,0.87488 h 20.940873 l 2.822219,-2.37066 -0.73378,-0.87489 H 81.662378 v -7.22488 h 12.897546 l 2.793998,-2.37067 -0.705555,-0.87489 H 83.271044 l -1.608666,1.35467 v -8.32555 l -0.225777,-0.28222 h 18.34443 l 2.822219,-2.34244 -0.73378,-0.87489 H 80.928601 l -2.793998,2.37066 z m 20.228249,-14.73198 c -0.508,-0.39511 -2.596443,-1.80622 -8.918215,-2.70933 l -2.596443,2.20133 0.536222,0.64911 c 6.321773,0.87489 8.410216,2.286 8.918215,2.70933 l 2.596443,-2.20133 z m 23.226903,6.9991 c -0.508,-0.39511 -2.59644,-1.80622 -8.91821,-2.70933 l -2.59644,2.1731 0.53622,0.64912 c 6.32177,0.90311 8.41021,2.31422 8.94644,2.70933 l 2.56822,-2.17311 z m -13.51843,7.73288 h 11.65577 l -1.94733,1.63689 v 15.83265 l 0.22577,0.254 h -7.84577 l -2.79399,2.37067 0.70555,0.87488 h 20.94087 l 2.82222,-2.37066 -0.73377,-0.87489 h -11.85333 l 2.08844,-1.74978 v -15.83265 l -0.11288,-0.14111 h 7.78932 l 2.82222,-2.34244 -0.73377,-0.87489 h -20.94088 l -2.79399,2.37066 z m 46.98295,-8.55133 c -0.508,-0.39511 -2.62467,-1.83444 -8.91822,-2.70933 l -2.59644,2.17311 0.53622,0.64911 c 6.32177,0.87489 8.41022,2.31422 8.91822,2.70933 l 2.59644,-2.17311 z m -17.75177,15.55044 v 5.24932 c 0,3.75356 0,5.70089 0.84667,6.71689 l 0.73378,0.87489 c 0.93133,1.12888 2.87866,1.12888 6.9991,1.12888 h 5.22111 c 3.75355,0 5.7291,0 6.7451,-0.87488 l 2.794,-2.34245 c 1.12889,-0.95955 1.12889,-2.90688 1.12889,-6.9991 v -5.24933 c 0,-3.75355 0,-5.70089 -0.84667,-6.74511 l -0.73377,-0.84666 c -0.93134,-1.12889 -2.90689,-1.12889 -6.99911,-1.12889 h -5.24933 c -3.75355,0 -5.70088,0 -6.71688,0.87489 l -2.82222,2.34244 c -1.10067,0.93133 -1.10067,2.90689 -1.10067,6.99911 z m 3.52778,-1.49578 c 0,-2.48356 0,-4.17689 0.254,-5.334 1.12888,0 2.65288,-0.16933 4.79777,-0.16933 h 5.22111 c 3.58422,0 5.53155,0 6.57577,0.762 0,1.10066 0.56444,3.01977 0.56444,6.23711 v 5.24932 c 0,2.48356 0,4.17689 -0.254,5.334 -1.12888,0 -2.6811,0.14111 -4.79777,0.14111 h -5.24933 c -3.556,0 -5.50333,0 -6.57577,-0.73378 0,-1.12888 -0.53622,-3.01977 -0.53622,-6.2371 z m 41.2256,-15.6351 c 0,-0.0282 -0.0282,-0.0847 -0.0282,-0.11289 l -0.53622,-0.64911 c -3.13267,1.32644 -6.26533,2.032 -6.26533,2.032 l -2.59645,2.17311 0.53623,0.64911 c 0,0 3.07622,-0.70556 6.15244,-2.00378 l 0.36688,0.42334 c 0.98778,1.18533 4.26156,1.52399 4.26156,1.52399 l 2.59644,-2.17311 -0.53622,-0.64911 c 0,0 -2.70933,-0.28222 -3.95111,-1.21355 z m -14.81666,17.13088 v 5.24932 c 0,3.75356 0,5.70089 0.84667,6.71689 l 0.73378,0.87489 c 0.93133,1.12888 2.87866,1.12888 6.9991,1.12888 h 5.22111 c 3.75355,0 5.72911,0 6.74511,-0.87488 l 2.79399,-2.34245 c 1.12889,-0.95955 1.12889,-2.90688 1.12889,-6.9991 v -5.24933 c 0,-3.75355 0,-5.70089 -0.84666,-6.74511 l -0.73378,-0.84666 c -0.93133,-1.12889 -2.90689,-1.12889 -6.99911,-1.12889 h -5.24933 c -3.75355,0 -5.70088,0 -6.71688,0.87489 l -2.82222,2.34244 c -1.10067,0.93133 -1.10067,2.90689 -1.10067,6.99911 z m 3.52778,-1.49578 c 0,-2.48356 0,-4.17689 0.254,-5.334 1.12889,0 2.65289,-0.16933 4.79777,-0.16933 h 5.22111 c 3.58422,0 5.53155,0 6.57577,0.762 0,1.10066 0.56445,3.01977 0.56445,6.23711 v 5.24932 c 0,2.48356 0,4.17689 -0.254,5.334 -1.12889,0 -2.68111,0.14111 -4.79778,0.14111 h -5.24933 c -3.55599,0 -5.50333,0 -6.57577,-0.73378 0,-1.12888 -0.53622,-3.01977 -0.53622,-6.2371 z m 17.40603,-20.23531 c -0.508,-0.39511 -2.59644,-1.80622 -8.91822,-2.70933 l -2.59644,2.20133 0.53622,0.64911 c 6.32177,0.87489 8.41022,2.286 8.91822,2.70933 l 2.59644,-2.20133 z m 15.57869,19.41686 c 0,-1.29822 0,-2.39888 0.0282,-3.30199 0.70556,0 1.524,0 2.42711,0 h 5.22111 c 3.24555,0 5.16466,0 6.29355,0.53622 0,1.15711 0.39511,2.99155 0.39511,5.89844 v 5.24933 c 0,1.29822 0,2.39889 -0.0565,3.302 -0.70555,0 -1.49577,0 -2.39888,0 h -5.24933 c -3.24556,0 -5.16466,0 -6.26533,-0.56445 0,-1.12889 -0.39511,-2.96333 -0.39511,-5.87022 z m -6.57577,3.13267 v 5.24933 c 0,3.75355 0,5.70088 0.84666,6.71688 l 1.18533,1.41111 c 0.93134,1.12889 2.87867,1.12889 6.99911,1.12889 h 5.22111 c 3.75355,0 5.7291,0 6.7451,-0.87489 l 5.39044,-4.51555 c 1.12889,-0.95956 1.12889,-2.90689 1.12889,-6.99911 v -5.24933 c 0,-3.75355 0,-5.70088 -0.84666,-6.7451 l -0.19756,-0.19756 c 1.97555,-1.63688 3.92289,-3.27377 5.87022,-4.91066 v -3.38666 l -1.18534,-1.41111 -5.39044,4.54377 v 3.35844 l -0.47977,0.39511 c -1.016,0 -2.99156,-0.90311 -6.80155,-0.90311 h -5.24933 c -3.75355,0 -5.70089,0 -6.71689,0.87489 l -5.41866,4.51555 c -1.10066,0.93134 -1.10066,2.90689 -1.10066,6.99911 z m 22.82473,-17.44132 c -0.508,-0.39511 -2.59644,-1.80622 -8.91822,-2.70933 l -2.59644,2.20133 0.53622,0.64911 c 6.32178,0.87489 8.41022,2.286 8.91822,2.70933 l 2.59644,-2.20133 z m 27.91176,1.07244 c -0.508,-0.39511 -2.62467,-1.83444 -8.91822,-2.70933 l -2.59644,2.17311 0.53622,0.64911 c 6.32177,0.87489 8.41022,2.31422 8.91822,2.70933 l 2.59644,-2.17311 z m 3.1891,7.70466 v 18.57021 h -17.41309 v -20.06598 l -0.73378,-0.87489 -2.794,2.37066 v 20.94088 l 0.70556,0.87488 h 18.34443 l 1.89088,-1.60866 v 0.73378 l 0.70556,0.87488 2.82222,-2.37066 v -20.94087 l -0.73378,-0.87489 z m 8.99584,0.81845 v 20.94087 l 1.15711,1.41111 h 18.34443 l 1.524,-1.29822 1.07244,1.29822 5.41866,-4.54377 v -20.91265 c 1.60867,-1.32645 3.21733,-2.68111 4.826,-4.03578 v -3.38666 l -1.18533,-1.41111 -5.39044,4.54377 v 3.33022 l -4.826,4.064 v 16.3971 h -14.3651 v -19.52977 l -1.18533,-1.41111 z m 22.82472,-9.59555 c -0.508,-0.39511 -2.59645,-1.80622 -8.91822,-2.70933 l -2.59644,2.20133 0.53622,0.64911 c 6.32177,0.87489 8.41022,2.286 8.91822,2.70933 l 2.59644,-2.20133 z m 34.76975,7.45066 h -3.66889 l -9.42621,9.42621 h -7.93044 v -9.59554 l -0.73378,-0.87489 -2.794,2.37066 v 10.47044 l 0.73378,0.87489 h 7.47888 l -8.2691,8.2691 v 1.12889 h 3.66888 l 20.94088,-20.94087 z m -4.24036,-6.40642 c -0.508,-0.39511 -2.59645,-1.80622 -8.91822,-2.70933 l -2.59644,2.20133 0.53622,0.64911 c 6.32177,0.87489 8.41021,2.286 8.91821,2.70933 l 2.59645,-2.20133 z"
         id="path62" />
      <path
         style="font-family:'NewEng Hangeul';-inkscape-font-specification:'NewEng Hangeul';text-align:center;text-anchor:middle"
         d="m -41.132513,240.4061 v -8.09977 h 15.52221 l 1.890888,-1.60867 v 11.20422 l 0.705555,0.87488 2.82222,-2.37066 v -20.94087 l -0.733778,-0.87489 h -18.316208 l -1.890887,1.60866 v -0.73377 l -0.733777,-0.87489 -2.793998,2.37066 v 20.94088 l 0.705555,0.87488 z m 0,-18.59843 h 17.413098 v 7.2531 h -15.522211 l -1.890887,1.60867 z m 11.451184,-10.95022 -2.511776,3.69711 0.536222,0.64911 2.596443,-2.20133 2.963331,-4.34622 -0.536222,-0.64911 h -6.208884 l -2.596443,2.20133 0.536222,0.64911 z m 29.7744217,0.81845 c 0,-0.0282 -0.0282222,-0.0847 -0.0282222,-0.11289 l -0.53622181,-0.64911 c -3.13266429,1.32644 -6.26532849,2.032 -6.26532849,2.032 l -2.5964424,2.17311 0.5362218,0.64911 c 0,0 3.0762198,-0.70556 6.1524397,-2.00378 l 0.3668886,0.42333 c 0.987777,1.18534 4.2615522,1.524 4.2615522,1.524 l 2.5964425,-2.17311 -0.5362218,-0.64911 c 0,0 -2.7093313,-0.28222 -3.9511081,-1.21355 z m -11.2888797,28.7302 v -8.09977 H 4.3264228 l 1.8908874,-1.60867 v 11.20422 l 0.705555,0.87488 2.82222,-2.37066 V 219.46523 L 9.011308,218.59034 H -9.3049 l -1.890887,1.60866 v -0.73377 l -0.733778,-0.87489 -2.793998,2.37066 v 20.94088 l 0.705556,0.87488 z m 0,-18.59843 H 6.2173102 v 7.2531 H -9.3049 l -1.890887,1.60867 z m 11.4511839,-10.95022 -2.5117758,3.69711 0.5362218,0.64911 2.59644241,-2.20133 2.96333109,-4.34622 -0.5362219,-0.64911 h -6.208884 l -2.5964425,2.20133 0.5362218,0.64911 z m 30.4799761,-3.89466 -2.511776,3.69711 0.536222,0.64911 2.596443,-2.17311 2.963331,-4.34622 -0.536222,-0.64911 h -6.208884 l -2.596443,2.17311 0.536222,0.64911 z m -2.483553,8.83355 c 1.495776,0 2.850442,-0.47978 3.809997,-1.27 l 2.596442,-2.17311 c 0.874888,-0.762 1.439332,-1.80622 1.439332,-3.01977 l -0.564444,-0.64911 -2.596442,2.1731 c 0,0.62089 -0.141111,1.21356 -0.395111,1.72156 -0.677333,0.254 -1.439332,0.39511 -2.229554,0.39511 0,0 -0.479777,0 -0.64911,0 -1.467555,0 -2.765776,-0.53622 -3.640664,-1.35467 -0.338667,-0.508 -0.508,-1.07244 -0.508,-1.69333 l -0.564444,-0.64911 -2.596442,2.17311 c 0,0.762 0.282222,1.43933 0.790221,2.032 l 0.536222,0.64911 c 0.846666,1.016 2.285998,1.66511 3.922886,1.66511 0.169333,0 0.649111,0 0.649111,0 z m -6.462884,23.79131 v -5.92666 h 12.925768 l 1.439332,-1.21355 v 10.27288 l 1.15711,1.41111 5.418662,-4.54378 v -20.94087 l -1.185332,-1.41111 H 23.228268 l -1.552221,1.29822 -1.072444,-1.29822 -5.39044,4.54378 v 20.94087 l 1.15711,1.41111 z m 0,-16.39709 h 14.3651 v 4.51555 H 23.228268 l -1.439332,1.21355 z m 27.1145,-1.38289 h 1.382888 l -2.088443,1.778 v 18.31621 l 0.705555,0.87488 h 20.940873 l 2.82222,-2.37066 -0.733777,-0.87489 H 51.725656 v -7.22488 h 12.897546 l 2.793998,-2.37067 -0.705555,-0.87489 H 53.334322 l -1.608666,1.35467 v -8.32555 l -0.225777,-0.28222 h 18.34443 l 2.82222,-2.34244 -0.733777,-0.87489 H 50.991879 l -2.793998,2.37066 z m 14.273401,-10.95022 -2.511776,3.69711 0.536222,0.64911 2.596442,-2.20133 2.963331,-4.34622 -0.536221,-0.64911 h -6.208884 l -2.596443,2.20133 0.536222,0.64911 z m 29.774421,0.81845 c 0,-0.0282 -0.02822,-0.0847 -0.02822,-0.11289 l -0.536222,-0.64911 c -3.132664,1.32644 -6.265328,2.032 -6.265328,2.032 l -2.596442,2.17311 0.536221,0.64911 c 0,0 3.07622,-0.70556 6.15244,-2.00378 l 0.366889,0.42333 c 0.987777,1.18534 4.261552,1.524 4.261552,1.524 l 2.596442,-2.17311 -0.536222,-0.64911 c 0,0 -2.709331,-0.28222 -3.951108,-1.21355 z m -14.1111,10.13177 h 1.382888 l -2.088443,1.778 v 18.31621 l 0.705555,0.87488 h 20.940873 l 2.822219,-2.37066 -0.73378,-0.87489 H 81.662378 v -7.22488 h 12.897546 l 2.793998,-2.37067 -0.705555,-0.87489 H 83.271044 l -1.608666,1.35467 v -8.32555 l -0.225777,-0.28222 h 18.34443 l 2.822219,-2.34244 -0.73378,-0.87489 H 80.928601 l -2.793998,2.37066 z m 14.273401,-10.95022 -2.511776,3.69711 0.536222,0.64911 2.596442,-2.20133 2.963331,-4.34622 -0.536222,-0.64911 h -6.208884 l -2.596442,2.20133 0.536222,0.64911 z m 15.663321,10.95022 h 11.65577 l -1.94733,1.63689 v 15.83265 l 0.22577,0.254 h -7.84577 l -2.79399,2.37067 0.70555,0.87488 h 20.94087 l 2.82222,-2.37066 -0.73377,-0.87489 h -11.85333 l 2.08844,-1.74978 v -15.83265 l -0.11288,-0.14111 h 7.78932 l 2.82222,-2.34244 -0.73377,-0.87489 h -20.94088 l -2.79399,2.37066 z m 14.27342,-10.95022 -2.51178,3.69711 0.53622,0.64911 2.59644,-2.20133 2.96334,-4.34622 -0.53623,-0.64911 h -6.20888 l -2.59644,2.20133 0.53622,0.64911 z m 14.95776,17.94932 v 5.24933 c 0,3.75356 0,5.70089 0.84667,6.71689 l 0.73378,0.87489 c 0.93133,1.12888 2.87866,1.12888 6.9991,1.12888 h 5.22111 c 3.75355,0 5.7291,0 6.7451,-0.87488 l 2.794,-2.34245 c 1.12889,-0.95955 1.12889,-2.90688 1.12889,-6.9991 V 227.311 c 0,-3.75355 0,-5.70089 -0.84667,-6.74511 l -0.73377,-0.84666 c -0.93134,-1.12889 -2.90689,-1.12889 -6.99911,-1.12889 h -5.24933 c -3.75355,0 -5.70088,0 -6.71688,0.87489 l -2.82222,2.34244 c -1.10067,0.93133 -1.10067,2.90689 -1.10067,6.9991 z m 3.52778,-1.49577 c 0,-2.48356 0,-4.17689 0.254,-5.334 1.12888,0 2.65288,-0.16933 4.79777,-0.16933 h 5.22111 c 3.58422,0 5.53155,0 6.57577,0.762 0,1.10066 0.56444,3.01977 0.56444,6.2371 v 5.24933 c 0,2.48356 0,4.17689 -0.254,5.334 -1.12888,0 -2.6811,0.14111 -4.79777,0.14111 h -5.24933 c -3.556,0 -5.50333,0 -6.57577,-0.73378 0,-1.12888 -0.53622,-3.01977 -0.53622,-6.2371 z m 11.45118,-16.45355 -2.51178,3.69711 0.53622,0.64911 2.59645,-2.20133 2.96333,-4.34622 -0.53622,-0.64911 h -6.20889 l -2.59644,2.20133 0.53622,0.64911 z m 29.77442,0.81845 c 0,-0.0282 -0.0282,-0.0847 -0.0282,-0.11289 L 182.197,210.9139 c -3.13267,1.32644 -6.26533,2.032 -6.26533,2.032 l -2.59645,2.17311 0.53623,0.64911 c 0,0 3.07622,-0.70556 6.15244,-2.00378 l 0.36688,0.42333 c 0.98778,1.18534 4.26156,1.524 4.26156,1.524 l 2.59644,-2.17311 -0.53622,-0.64911 c 0,0 -2.70933,-0.28222 -3.95111,-1.21355 z m -14.81666,17.13087 v 5.24933 c 0,3.75356 0,5.70089 0.84667,6.71689 l 0.73378,0.87489 c 0.93133,1.12888 2.87866,1.12888 6.9991,1.12888 h 5.22111 c 3.75355,0 5.72911,0 6.74511,-0.87488 l 2.79399,-2.34245 c 1.12889,-0.95955 1.12889,-2.90688 1.12889,-6.9991 V 227.311 c 0,-3.75355 0,-5.70089 -0.84666,-6.74511 l -0.73378,-0.84666 c -0.93133,-1.12889 -2.90689,-1.12889 -6.99911,-1.12889 h -5.24933 c -3.75355,0 -5.70088,0 -6.71688,0.87489 l -2.82222,2.34244 c -1.10067,0.93133 -1.10067,2.90689 -1.10067,6.9991 z m 3.52778,-1.49577 c 0,-2.48356 0,-4.17689 0.254,-5.334 1.12889,0 2.65289,-0.16933 4.79777,-0.16933 h 5.22111 c 3.58422,0 5.53155,0 6.57577,0.762 0,1.10066 0.56445,3.01977 0.56445,6.2371 v 5.24933 c 0,2.48356 0,4.17689 -0.254,5.334 -1.12889,0 -2.68111,0.14111 -4.79778,0.14111 h -5.24933 c -3.55599,0 -5.50333,0 -6.57577,-0.73378 0,-1.12888 -0.53622,-3.01977 -0.53622,-6.2371 z m 11.45118,-16.45355 -2.51178,3.69711 0.53623,0.64911 2.59644,-2.20133 2.96333,-4.34622 -0.53622,-0.64911 h -6.20889 l -2.59644,2.20133 0.53622,0.64911 z m 30.31064,0 -2.51177,3.69711 0.53622,0.64911 2.59644,-2.17311 2.96333,-4.34621 -0.53622,-0.64912 h -6.20888 l -2.59645,2.17311 0.53623,0.64911 z m -8.7771,15.6351 c 0,-1.29822 0,-2.39888 0.0282,-3.30199 0.70556,0 1.524,0 2.42711,0 h 5.22111 c 3.24555,0 5.16466,0 6.29355,0.53622 0,1.15711 0.39511,2.99155 0.39511,5.89844 v 5.24933 c 0,1.29822 0,2.39888 -0.0565,3.30199 -0.70555,0 -1.49577,0 -2.39888,0 h -5.24933 c -3.24556,0 -5.16466,0 -6.26533,-0.56444 0,-1.12889 -0.39511,-2.96333 -0.39511,-5.87022 z m -6.57577,3.13267 v 5.24933 c 0,3.75355 0,5.70088 0.84666,6.71688 l 1.18533,1.41111 c 0.93134,1.12889 2.87867,1.12889 6.99911,1.12889 h 5.22111 c 3.75355,0 5.7291,0 6.7451,-0.87489 l 5.39044,-4.51555 c 1.12889,-0.95956 1.12889,-2.90689 1.12889,-6.99911 v -5.24933 c 0,-3.75355 0,-5.70088 -0.84666,-6.7451 l -0.19756,-0.19756 c 1.97555,-1.63688 3.92289,-3.27377 5.87022,-4.91066 v -3.38666 l -1.18534,-1.41111 -5.39044,4.54377 v 3.35844 l -0.47977,0.39511 c -1.016,0 -2.99156,-0.90311 -6.80155,-0.90311 h -5.24933 c -3.75355,0 -5.70089,0 -6.71689,0.87489 l -5.41866,4.51555 c -1.10066,0.93134 -1.10066,2.90689 -1.10066,6.99911 z M 251.8071,220.961 v 18.57021 h -17.41309 v -20.06598 l -0.73378,-0.87489 -2.794,2.37066 v 20.94088 l 0.70556,0.87488 h 18.34443 l 1.89088,-1.60866 v 0.73378 l 0.70556,0.87488 2.82222,-2.37066 v -20.94087 l -0.73378,-0.87489 z m -5.96193,-10.10355 -2.51177,3.69711 0.53622,0.64911 2.59644,-2.20133 2.96333,-4.34622 -0.53622,-0.64911 h -6.20888 l -2.59645,2.20133 0.53622,0.64911 z m 30.31065,0 -2.51178,3.69711 0.53622,0.64911 2.59644,-2.17311 2.96333,-4.34621 -0.53622,-0.64912 h -6.20888 l -2.59644,2.17311 0.53622,0.64911 z m -15.35288,10.922 v 20.94087 l 1.15711,1.41111 h 18.34443 l 1.524,-1.29822 1.07244,1.29822 5.41866,-4.54378 V 218.675 c 1.60867,-1.32644 3.21733,-2.6811 4.826,-4.03577 v -3.38666 l -1.18533,-1.41111 -5.39044,4.54377 v 3.33022 l -4.826,4.064 v 16.39709 h -14.3651 v -19.52976 l -1.18533,-1.41111 z m 57.59447,-2.14489 h -3.66889 l -9.42621,9.42621 h -7.93044 v -9.59554 l -0.73378,-0.87489 -2.794,2.37066 v 10.47044 l 0.73378,0.87489 h 7.47888 l -8.2691,8.2691 v 1.12889 h 3.66888 l 20.94088,-20.94087 z m -9.48971,-8.77711 -2.51177,3.69711 0.53622,0.64911 2.59644,-2.20133 2.96333,-4.34622 -0.53622,-0.64911 h -6.20888 l -2.59645,2.20133 0.53623,0.64911 z"
         id="path63" />
      <path
         style="font-family:'NewEng Hangeul';-inkscape-font-specification:'NewEng Hangeul';text-align:center;text-anchor:middle"
         d="m -35.31874,260.38742 c -0.790221,0 -1.382888,0.22577 -1.806221,0.56444 l -2.596442,2.17311 c -0.508,0.45155 -0.761999,1.04422 -0.761999,1.66511 0,0.47978 0.169333,0.98778 0.507999,1.38289 l 0.536222,0.64911 c 0.395111,0.45155 1.044221,0.79022 1.890887,0.79022 l 2.596443,-2.17311 -0.536222,-0.64911 c -0.677333,0 -1.213555,-0.19756 -1.580443,-0.508 -0.169333,-0.31045 -0.254,-0.67733 -0.254,-1.016 0,-0.0282 0,-0.0564 0,-0.0564 2.060221,0.0564 4.402663,4.40266 7.789327,4.40266 0.762,0 1.354666,-0.22578 1.749777,-0.59267 l 2.596442,-2.17311 c 0.508,-0.42333 0.790222,-1.016 0.790222,-1.63688 0,-0.47978 -0.169333,-0.95956 -0.508,-1.35467 l -0.536222,-0.64911 c -0.423333,-0.47978 -1.100665,-0.81844 -2.031998,-0.81844 l -2.596443,2.1731 0.536222,0.64912 c 0.733777,0 1.326444,0.19755 1.749777,0.53622 0.141111,0.31044 0.225777,0.64911 0.225777,0.98777 0,0.0282 0,0.0282 0,0.0564 -3.358442,-0.0564 -5.700884,-4.40266 -7.761105,-4.40266 z m -5.813773,30.81864 v -8.09977 h 15.52221 l 1.890888,-1.60867 v 11.20421 l 0.705555,0.87489 2.82222,-2.37066 v -20.94087 l -0.733778,-0.87489 h -18.316208 l -1.890887,1.60866 v -0.73377 l -0.733777,-0.87489 -2.793998,2.37066 v 20.94087 l 0.705555,0.87489 z m 0,-18.59843 h 17.413098 v 7.2531 h -15.522211 l -1.890887,1.60867 z M 0.0930927,262.47586 c 0,-0.0282 -0.0282222,-0.0847 -0.0282222,-0.11289 l -0.53622181,-0.64911 c -3.13266429,1.32644 -6.26532849,2.032 -6.26532849,2.032 l -2.5964424,2.17311 0.5362218,0.64911 c 0,0 3.0762198,-0.70556 6.1524397,-2.00378 l 0.3668886,0.42333 c 0.987777,1.18534 4.2615522,1.524 4.2615522,1.524 l 2.5964425,-2.17311 -0.5362218,-0.64911 c 0,0 -2.7093313,-0.28222 -3.9511081,-1.21355 z m -11.2888797,28.7302 v -8.09977 H 4.3264228 l 1.8908874,-1.60867 v 11.20421 l 0.705555,0.87489 2.82222,-2.37066 V 270.26519 L 9.011308,269.3903 H -9.3049 l -1.890887,1.60866 v -0.73377 l -0.733778,-0.87489 -2.793998,2.37066 v 20.94087 l 0.705556,0.87489 z m 0,-18.59843 H 6.2173102 v 7.2531 H -9.3049 l -1.890887,1.60867 z m 8.9958086,-18.40087 c -0.7902216,0 -1.3828878,0.254 -1.8062208,0.59267 l -2.5964425,2.17311 c -0.5079996,0.42333 -0.7337772,1.04422 -0.7337772,1.63688 0,0.508 0.141111,0.98778 0.4797774,1.38289 l 0.5362218,0.64911 c 0.3951108,0.47978 1.0442215,0.81845 1.8908875,0.81845 l 2.5964424,-2.20134 -0.5362218,-0.64911 c -0.6773328,0 -1.1853324,-0.16933 -1.5804432,-0.47977 -0.1693332,-0.33867 -0.2539998,-0.67734 -0.2539998,-1.04423 0,0 0,-0.0282 0,-0.0282 2.0602206,0.0564 4.40266323,4.40267 7.7893273,4.40267 0.7619994,0 1.3546656,-0.22578 1.7779986,-0.59267 l 2.5964424,-2.17311 c 0.5079996,-0.42333 0.7619994,-1.04422 0.7619994,-1.63689 0,-0.47978 -0.1693332,-0.95955 -0.4797774,-1.35466 l -0.564444,-0.64911 c -0.3951108,-0.47978 -1.0724436,-0.84667 -2.0319984,-0.84667 l -2.5964424,2.20133 0.5362218,0.64911 c 0.7619994,0 1.3264434,0.19756 1.7497764,0.53622 0.1693332,0.31045 0.2539998,0.64911 0.2539998,0.98778 0,0 0,0.0282 0,0.0282 -3.386664,-0.0564 -5.72910667,-4.40266 -7.7893273,-4.40266 z M 28.25182,266.5963 c 1.495776,0 2.850442,-0.47978 3.809997,-1.27 l 2.596442,-2.17311 c 0.874888,-0.762 1.439332,-1.80622 1.439332,-3.01977 l -0.564444,-0.64912 -2.596442,2.17311 c 0,0.62089 -0.141111,1.21356 -0.395111,1.72156 -0.677333,0.254 -1.439332,0.39511 -2.229554,0.39511 0,0 -0.479777,0 -0.64911,0 -1.467555,0 -2.765776,-0.53622 -3.640664,-1.35467 -0.338667,-0.508 -0.508,-1.07244 -0.508,-1.69333 l -0.564444,-0.64911 -2.596442,2.17311 c 0,0.762 0.282222,1.43933 0.790221,2.032 l 0.536222,0.64911 c 0.846666,1.016 2.285998,1.66511 3.922886,1.66511 0.169333,0 0.649111,0 0.649111,0 z m -6.462884,23.79131 v -5.92666 h 12.925768 l 1.439332,-1.21355 v 10.27288 l 1.15711,1.41111 5.418662,-4.54378 v -20.94087 l -1.185332,-1.41111 H 23.228268 l -1.552221,1.29822 -1.072444,-1.29822 -5.39044,4.54378 v 20.94087 l 1.15711,1.41111 z m 0,-16.39709 h 14.3651 v 4.51555 H 23.228268 l -1.439332,1.21355 z m 7.838738,-14.67555 c -0.790222,0 -1.382888,0.254 -1.806221,0.59267 l -2.596443,2.17311 c -0.507999,0.42333 -0.733777,1.04422 -0.733777,1.63688 0,0.508 0.141111,0.98778 0.479778,1.38289 l 0.536221,0.64911 c 0.395111,0.47978 1.044222,0.81845 1.890888,0.81845 l 2.596442,-2.20133 -0.536222,-0.64912 c -0.677332,0 -1.185332,-0.16933 -1.580443,-0.47977 -0.169333,-0.33867 -0.254,-0.67734 -0.254,-1.04422 0,0 0,-0.0282 0,-0.0282 2.060221,0.0564 4.402664,4.40267 7.789328,4.40267 0.761999,0 1.354665,-0.22578 1.777998,-0.59267 l 2.596443,-2.17311 c 0.507999,-0.42333 0.761999,-1.04422 0.761999,-1.63689 0,-0.47977 -0.169333,-0.95955 -0.479777,-1.35466 l -0.564444,-0.64911 c -0.395111,-0.47978 -1.072444,-0.84667 -2.031999,-0.84667 l -2.596442,2.20133 0.536222,0.64911 c 0.761999,0 1.326443,0.19756 1.749776,0.53623 0.169333,0.31044 0.254,0.64911 0.254,0.98777 0,0 0,0.0282 0,0.0282 -3.386664,-0.0564 -5.729107,-4.40266 -7.789327,-4.40266 z m 19.275762,13.29266 h 1.382888 l -2.088443,1.778 v 18.3162 l 0.705555,0.87489 h 20.940873 l 2.82222,-2.37066 -0.733777,-0.87489 H 51.725656 v -7.22488 h 12.897546 l 2.793998,-2.37067 -0.705555,-0.87489 H 53.334322 l -1.608666,1.35467 v -8.32555 l -0.225777,-0.28222 h 18.34443 l 2.82222,-2.34244 -0.733777,-0.87489 H 50.991879 l -2.793998,2.37066 z m 11.253626,-12.24842 c -0.790222,0 -1.382888,0.254 -1.806221,0.59267 l -2.596442,2.17311 c -0.508,0.42333 -0.733777,1.04422 -0.733777,1.63688 0,0.508 0.141111,0.98778 0.479777,1.38289 l 0.536222,0.64911 c 0.395111,0.47978 1.044221,0.81845 1.890887,0.81845 l 2.596443,-2.20133 -0.536222,-0.64912 c -0.677333,0 -1.185333,-0.16933 -1.580443,-0.47977 -0.169334,-0.33867 -0.254,-0.67734 -0.254,-1.04422 0,0 0,-0.0282 0,-0.0282 2.06022,0.0564 4.402663,4.40267 7.789327,4.40267 0.761999,0 1.354666,-0.22578 1.777999,-0.59267 l 2.596442,-2.17311 c 0.508,-0.42333 0.762,-1.04422 0.762,-1.63689 0,-0.47977 -0.169334,-0.95955 -0.479778,-1.35466 l -0.564444,-0.64911 c -0.395111,-0.47978 -1.072443,-0.84667 -2.031998,-0.84667 l -2.596443,2.20133 0.536222,0.64911 c 0.761999,0 1.326444,0.19756 1.749777,0.53623 0.169333,0.31044 0.253999,0.64911 0.253999,0.98777 0,0 0,0.0282 0,0.0282 -3.386664,-0.0564 -5.729106,-4.40266 -7.789327,-4.40266 z m 32.794196,2.11665 c 0,-0.0282 -0.02822,-0.0847 -0.02822,-0.11289 l -0.536222,-0.64911 c -3.132664,1.32644 -6.265328,2.032 -6.265328,2.032 l -2.596442,2.17311 0.536221,0.64911 c 0,0 3.07622,-0.70556 6.15244,-2.00378 l 0.366889,0.42333 c 0.987777,1.18534 4.261552,1.524 4.261552,1.524 l 2.596442,-2.17311 -0.536222,-0.64911 c 0,0 -2.709331,-0.28222 -3.951108,-1.21355 z m -14.1111,10.13177 h 1.382888 l -2.088443,1.778 v 18.3162 l 0.705555,0.87489 h 20.940873 l 2.822219,-2.37066 -0.73378,-0.87489 H 81.662378 v -7.22488 h 12.897546 l 2.793998,-2.37067 -0.705555,-0.87489 H 83.271044 l -1.608666,1.35467 v -8.32555 l -0.225777,-0.28222 h 18.34443 l 2.822219,-2.34244 -0.73378,-0.87489 H 80.928601 l -2.793998,2.37066 z m 11.818033,-18.40087 c -0.790221,0 -1.382888,0.254 -1.806221,0.59267 l -2.596442,2.17311 c -0.508,0.42333 -0.733777,1.04422 -0.733777,1.63688 0,0.508 0.141111,0.98778 0.479777,1.38289 l 0.536222,0.64911 c 0.395111,0.47978 1.044221,0.81845 1.890887,0.81845 l 2.596443,-2.20134 -0.536222,-0.64911 c -0.677333,0 -1.185332,-0.16933 -1.580443,-0.47977 -0.169333,-0.33867 -0.254,-0.67734 -0.254,-1.04423 0,0 0,-0.0282 0,-0.0282 2.060221,0.0564 4.402663,4.40267 7.789327,4.40267 0.762,0 1.354666,-0.22578 1.777999,-0.59267 l 2.596439,-2.17311 c 0.508,-0.42333 0.762,-1.04422 0.762,-1.63689 0,-0.47978 -0.16933,-0.95955 -0.47977,-1.35466 l -0.56445,-0.64911 c -0.39511,-0.47978 -1.072442,-0.84667 -2.031997,-0.84667 l -2.596443,2.20133 0.536222,0.64911 c 0.762,0 1.326444,0.19756 1.749777,0.53622 0.169333,0.31045 0.253999,0.64911 0.253999,0.98778 0,0 0,0.0282 0,0.0282 -3.386664,-0.0564 -5.729106,-4.40266 -7.789327,-4.40266 z m 18.118689,18.40087 h 11.65577 l -1.94733,1.63689 v 15.83265 l 0.22577,0.254 h -7.84577 l -2.79399,2.37066 0.70555,0.87489 h 20.94087 l 2.82222,-2.37066 -0.73377,-0.87489 h -11.85333 l 2.08844,-1.74978 v -15.83265 l -0.11288,-0.14111 h 7.78932 l 2.82222,-2.34244 -0.73377,-0.87489 h -20.94088 l -2.79399,2.37066 z m 11.25364,-12.24842 c -0.79022,0 -1.38289,0.254 -1.80622,0.59267 l -2.59644,2.17311 c -0.508,0.42333 -0.73378,1.04422 -0.73378,1.63688 0,0.508 0.14111,0.98778 0.47978,1.38289 l 0.53622,0.64911 c 0.39511,0.47978 1.04422,0.81845 1.89089,0.81845 l 2.59644,-2.20133 -0.53622,-0.64912 c -0.67734,0 -1.18533,-0.16933 -1.58045,-0.47977 -0.16933,-0.33867 -0.254,-0.67734 -0.254,-1.04422 0,0 0,-0.0282 0,-0.0282 2.06023,0.0564 4.40267,4.40267 7.78933,4.40267 0.762,0 1.35467,-0.22578 1.778,-0.59267 l 2.59644,-2.17311 c 0.508,-0.42333 0.762,-1.04422 0.762,-1.63689 0,-0.47977 -0.16933,-0.95955 -0.47977,-1.35466 l -0.56445,-0.64911 c -0.39511,-0.47978 -1.07244,-0.84667 -2.032,-0.84667 l -2.59644,2.20133 0.53622,0.64911 c 0.762,0 1.32645,0.19756 1.74978,0.53623 0.16933,0.31044 0.254,0.64911 0.254,0.98777 0,0 0,0.0282 0,0.0282 -3.38667,-0.0564 -5.72911,-4.40266 -7.78933,-4.40266 z m 27.31909,0.0282 c -0.79022,0 -1.38289,0.22577 -1.80622,0.56444 l -2.59644,2.17311 c -0.508,0.45155 -0.762,1.04422 -0.762,1.66511 0,0.47978 0.16933,0.98778 0.508,1.38289 l 0.53622,0.64911 c 0.39511,0.45155 1.04422,0.79022 1.89089,0.79022 l 2.59644,-2.17311 -0.53622,-0.64911 c -0.67734,0 -1.21356,-0.19756 -1.58045,-0.508 -0.16933,-0.31045 -0.254,-0.67733 -0.254,-1.016 0,-0.0282 0,-0.0564 0,-0.0564 2.06022,0.0564 4.40267,4.40266 7.78933,4.40266 0.762,0 1.35467,-0.22578 1.74978,-0.59267 l 2.59644,-2.17311 c 0.508,-0.42333 0.79022,-1.016 0.79022,-1.63688 0,-0.47978 -0.16933,-0.95956 -0.508,-1.35467 l -0.53622,-0.64911 c -0.42333,-0.47978 -1.10067,-0.81844 -2.032,-0.81844 l -2.59644,2.1731 0.53622,0.64912 c 0.73378,0 1.32644,0.19755 1.74978,0.53622 0.14111,0.31044 0.22578,0.64911 0.22578,0.98777 0,0.0282 0,0.0282 0,0.0564 -3.35845,-0.0564 -5.70089,-4.40266 -7.76111,-4.40266 z m -9.34155,19.21931 v 5.24933 c 0,3.75356 0,5.70089 0.84667,6.71689 l 0.73378,0.87488 c 0.93133,1.12889 2.87866,1.12889 6.9991,1.12889 h 5.22111 c 3.75355,0 5.7291,0 6.7451,-0.87489 l 2.794,-2.34244 c 1.12889,-0.95955 1.12889,-2.90688 1.12889,-6.9991 v -5.24933 c 0,-3.75356 0,-5.70089 -0.84667,-6.74511 l -0.73377,-0.84666 c -0.93134,-1.12889 -2.90689,-1.12889 -6.99911,-1.12889 h -5.24933 c -3.75355,0 -5.70088,0 -6.71688,0.87489 l -2.82222,2.34244 c -1.10067,0.93133 -1.10067,2.90688 -1.10067,6.9991 z m 3.52778,-1.49577 c 0,-2.48356 0,-4.17689 0.254,-5.334 1.12888,0 2.65288,-0.16933 4.79777,-0.16933 h 5.22111 c 3.58422,0 5.53155,0 6.57577,0.762 0,1.10066 0.56444,3.01977 0.56444,6.2371 v 5.24933 c 0,2.48356 0,4.17689 -0.254,5.334 -1.12888,0 -2.6811,0.14111 -4.79777,0.14111 h -5.24933 c -3.556,0 -5.50333,0 -6.57577,-0.73378 0,-1.12889 -0.53622,-3.01977 -0.53622,-6.2371 z m 41.2256,-15.6351 c 0,-0.0282 -0.0282,-0.0847 -0.0282,-0.11289 l -0.53622,-0.64911 c -3.13267,1.32644 -6.26533,2.032 -6.26533,2.032 l -2.59645,2.17311 0.53623,0.64911 c 0,0 3.07622,-0.70556 6.15244,-2.00378 l 0.36688,0.42333 c 0.98778,1.18534 4.26156,1.524 4.26156,1.524 l 2.59644,-2.17311 -0.53622,-0.64911 c 0,0 -2.70933,-0.28222 -3.95111,-1.21355 z m -14.81666,17.13087 v 5.24933 c 0,3.75356 0,5.70089 0.84667,6.71689 l 0.73378,0.87488 c 0.93133,1.12889 2.87866,1.12889 6.9991,1.12889 h 5.22111 c 3.75355,0 5.72911,0 6.74511,-0.87489 l 2.79399,-2.34244 c 1.12889,-0.95955 1.12889,-2.90688 1.12889,-6.9991 v -5.24933 c 0,-3.75356 0,-5.70089 -0.84666,-6.74511 l -0.73378,-0.84666 c -0.93133,-1.12889 -2.90689,-1.12889 -6.99911,-1.12889 h -5.24933 c -3.75355,0 -5.70088,0 -6.71688,0.87489 l -2.82222,2.34244 c -1.10067,0.93133 -1.10067,2.90688 -1.10067,6.9991 z m 3.52778,-1.49577 c 0,-2.48356 0,-4.17689 0.254,-5.334 1.12889,0 2.65289,-0.16933 4.79777,-0.16933 h 5.22111 c 3.58422,0 5.53155,0 6.57577,0.762 0,1.10066 0.56445,3.01977 0.56445,6.2371 v 5.24933 c 0,2.48356 0,4.17689 -0.254,5.334 -1.12889,0 -2.68111,0.14111 -4.79778,0.14111 h -5.24933 c -3.55599,0 -5.50333,0 -6.57577,-0.73378 0,-1.12889 -0.53622,-3.01977 -0.53622,-6.2371 z m 8.99581,-23.9042 c -0.79022,0 -1.38289,0.254 -1.80622,0.59267 l -2.59644,2.17311 c -0.508,0.42333 -0.73378,1.04422 -0.73378,1.63688 0,0.508 0.14111,0.98778 0.47978,1.38289 l 0.53622,0.64911 c 0.39511,0.47978 1.04422,0.81845 1.89089,0.81845 l 2.59644,-2.20134 -0.53622,-0.64911 c -0.67733,0 -1.18533,-0.16933 -1.58044,-0.47977 -0.16934,-0.33867 -0.254,-0.67734 -0.254,-1.04423 0,0 0,-0.0282 0,-0.0282 2.06022,0.0564 4.40266,4.40267 7.78932,4.40267 0.762,0 1.35467,-0.22578 1.778,-0.59267 l 2.59644,-2.17311 c 0.508,-0.42333 0.762,-1.04422 0.762,-1.63689 0,-0.47978 -0.16933,-0.95955 -0.47977,-1.35466 l -0.56445,-0.64911 c -0.39511,-0.47978 -1.07244,-0.84667 -2.032,-0.84667 l -2.59644,2.20133 0.53622,0.64911 c 0.762,0 1.32645,0.19756 1.74978,0.53622 0.16933,0.31045 0.254,0.64911 0.254,0.98778 0,0 0,0.0282 0,0.0282 -3.38666,-0.0564 -5.72911,-4.40266 -7.78933,-4.40266 z m 23.98891,23.08575 c 0,-1.29822 0,-2.39888 0.0282,-3.30199 0.70556,0 1.524,0 2.42711,0 h 5.22111 c 3.24555,0 5.16466,0 6.29355,0.53622 0,1.15711 0.39511,2.99155 0.39511,5.89844 v 5.24933 c 0,1.29822 0,2.39888 -0.0565,3.30199 -0.70555,0 -1.49577,0 -2.39888,0 h -5.24933 c -3.24556,0 -5.16466,0 -6.26533,-0.56444 0,-1.12889 -0.39511,-2.96333 -0.39511,-5.87022 z m -6.57577,3.13267 v 5.24933 c 0,3.75355 0,5.70088 0.84666,6.71688 l 1.18533,1.41111 c 0.93134,1.12889 2.87867,1.12889 6.99911,1.12889 h 5.22111 c 3.75355,0 5.7291,0 6.7451,-0.87489 l 5.39044,-4.51555 c 1.12889,-0.95956 1.12889,-2.90689 1.12889,-6.99911 v -5.24933 c 0,-3.75355 0,-5.70088 -0.84666,-6.7451 l -0.19756,-0.19756 c 1.97555,-1.63689 3.92289,-3.27377 5.87022,-4.91066 v -3.38666 l -1.18534,-1.41111 -5.39044,4.54377 v 3.35844 l -0.47977,0.39511 c -1.016,0 -2.99156,-0.90311 -6.80155,-0.90311 h -5.24933 c -3.75355,0 -5.70089,0 -6.71689,0.87489 l -5.41866,4.51555 c -1.10066,0.93133 -1.10066,2.90689 -1.10066,6.99911 z m 14.41451,-21.11021 c -0.79022,0 -1.38288,0.254 -1.80622,0.59267 l -2.59644,2.17311 c -0.508,0.42333 -0.73378,1.04422 -0.73378,1.63688 0,0.508 0.14111,0.98778 0.47978,1.38289 l 0.53622,0.64911 c 0.39511,0.47978 1.04422,0.81845 1.89089,0.81845 l 2.59644,-2.20133 -0.53622,-0.64912 c -0.67733,0 -1.18533,-0.16933 -1.58044,-0.47977 -0.16934,-0.33867 -0.254,-0.67734 -0.254,-1.04422 0,0 0,-0.0282 0,-0.0282 2.06022,0.0564 4.40266,4.40267 7.78932,4.40267 0.762,0 1.35467,-0.22578 1.778,-0.59267 l 2.59645,-2.17311 c 0.508,-0.42333 0.762,-1.04422 0.762,-1.63689 0,-0.47977 -0.16934,-0.95955 -0.47978,-1.35466 l -0.56445,-0.64911 c -0.39511,-0.47978 -1.07244,-0.84667 -2.03199,-0.84667 l -2.59645,2.20133 0.53622,0.64911 c 0.762,0 1.32645,0.19756 1.74978,0.53623 0.16933,0.31044 0.254,0.64911 0.254,0.98777 0,0 0,0.0282 0,0.0282 -3.38666,-0.0564 -5.72911,-4.40266 -7.78933,-4.40266 z m 39.51108,12.44599 v 18.57021 h -17.41309 v -20.06598 l -0.73378,-0.87489 -2.794,2.37066 v 20.94087 l 0.70556,0.87489 h 18.34443 l 1.89088,-1.60866 v 0.73377 l 0.70556,0.87489 2.82222,-2.37066 v -20.94087 l -0.73378,-0.87489 z m -8.98172,-11.40175 c -0.79022,0 -1.38289,0.254 -1.80622,0.59267 l -2.59644,2.17311 c -0.508,0.42333 -0.73378,1.04422 -0.73378,1.63688 0,0.508 0.14111,0.98778 0.47978,1.38289 l 0.53622,0.64911 c 0.39511,0.47978 1.04422,0.81845 1.89089,0.81845 l 2.59644,-2.20133 -0.53622,-0.64912 c -0.67733,0 -1.18533,-0.16933 -1.58044,-0.47977 -0.16934,-0.33867 -0.254,-0.67734 -0.254,-1.04422 0,0 0,-0.0282 0,-0.0282 2.06022,0.0564 4.40266,4.40267 7.78932,4.40267 0.762,0 1.35467,-0.22578 1.778,-0.59267 l 2.59644,-2.17311 c 0.508,-0.42333 0.762,-1.04422 0.762,-1.63689 0,-0.47977 -0.16933,-0.95955 -0.47977,-1.35466 l -0.56445,-0.64911 c -0.39511,-0.47978 -1.07244,-0.84667 -2.032,-0.84667 l -2.59644,2.20133 0.53622,0.64911 c 0.762,0 1.32645,0.19756 1.74978,0.53623 0.16933,0.31044 0.254,0.64911 0.254,0.98777 0,0 0,0.0282 0,0.0282 -3.38667,-0.0564 -5.72911,-4.40266 -7.78933,-4.40266 z m 17.97756,12.2202 v 20.94087 l 1.15711,1.41111 h 18.34443 l 1.524,-1.29822 1.07244,1.29822 5.41866,-4.54378 v -20.91265 c 1.60867,-1.32644 3.21733,-2.68111 4.826,-4.03577 v -3.38666 l -1.18533,-1.41111 -5.39044,4.54377 v 3.33022 l -4.826,4.064 v 16.39709 h -14.3651 v -19.52976 l -1.18533,-1.41111 z m 14.4145,-13.26444 c -0.79022,0 -1.38289,0.254 -1.80622,0.59267 l -2.59644,2.17311 c -0.508,0.42333 -0.73378,1.04422 -0.73378,1.63688 0,0.508 0.14111,0.98778 0.47978,1.38289 l 0.53622,0.64911 c 0.39511,0.47978 1.04422,0.81845 1.89089,0.81845 l 2.59644,-2.20133 -0.53622,-0.64912 c -0.67733,0 -1.18533,-0.16933 -1.58045,-0.47977 -0.16933,-0.33867 -0.254,-0.67734 -0.254,-1.04422 0,0 0,-0.0282 0,-0.0282 2.06023,0.0564 4.40267,4.40267 7.78933,4.40267 0.762,0 1.35467,-0.22578 1.778,-0.59267 l 2.59644,-2.17311 c 0.508,-0.42333 0.762,-1.04422 0.762,-1.63689 0,-0.47977 -0.16933,-0.95955 -0.47977,-1.35466 l -0.56445,-0.64911 c -0.39511,-0.47978 -1.07244,-0.84667 -2.032,-0.84667 l -2.59644,2.20133 0.53622,0.64911 c 0.762,0 1.32645,0.19756 1.74978,0.53623 0.16933,0.31044 0.254,0.64911 0.254,0.98777 0,0 0,0.0282 0,0.0282 -3.38667,-0.0564 -5.72911,-4.40266 -7.78933,-4.40266 z m 43.17997,11.11955 h -3.66889 l -9.42621,9.42621 h -7.93044 v -9.59554 l -0.73378,-0.87489 -2.794,2.37066 v 10.47044 l 0.73378,0.87489 h 7.47888 l -8.2691,8.2691 v 1.12889 h 3.66888 l 20.94088,-20.94087 z m -12.65058,-10.07531 c -0.79022,0 -1.38289,0.254 -1.80622,0.59267 l -2.59644,2.17311 c -0.508,0.42333 -0.73378,1.04422 -0.73378,1.63688 0,0.508 0.14111,0.98778 0.47978,1.38289 l 0.53622,0.64911 c 0.39511,0.47978 1.04422,0.81845 1.89089,0.81845 l 2.59644,-2.20133 -0.53622,-0.64912 c -0.67734,0 -1.18534,-0.16933 -1.58045,-0.47977 -0.16933,-0.33867 -0.254,-0.67734 -0.254,-1.04422 0,0 0,-0.0282 0,-0.0282 2.06022,0.0564 4.40267,4.40267 7.78933,4.40267 0.762,0 1.35467,-0.22578 1.778,-0.59267 l 2.59644,-2.17311 c 0.508,-0.42333 0.762,-1.04422 0.762,-1.63689 0,-0.47977 -0.16933,-0.95955 -0.47978,-1.35466 l -0.56444,-0.64911 c -0.39511,-0.47978 -1.07244,-0.84667 -2.032,-0.84667 l -2.59644,2.20133 0.53622,0.64911 c 0.762,0 1.32644,0.19756 1.74978,0.53623 0.16933,0.31044 0.254,0.64911 0.254,0.98777 0,0 0,0.0282 0,0.0282 -3.38667,-0.0564 -5.72911,-4.40266 -7.78933,-4.40266 z"
         id="path64" />
      <path
         style="font-family:'NewEng Hangeul';-inkscape-font-specification:'NewEng Hangeul';text-align:center;text-anchor:middle"
         d="m -41.132513,342.00602 v -8.09977 h 15.52221 l 1.890888,-1.60867 v 11.20421 l 0.705555,0.87489 2.82222,-2.37066 v -20.94088 l -0.733778,-0.87488 h -18.316208 l -1.890887,1.60866 v -0.73378 l -0.733777,-0.87488 -2.793998,2.37066 v 20.94087 l 0.705555,0.87489 z m 0,-18.59843 h 17.413098 v 7.2531 h -15.522211 l -1.890887,1.60867 z m 6.794521,27.79886 h 3.555997 l 2.596443,-2.1731 -0.536222,-0.64912 h -3.555997 l -2.596443,2.20134 z M 0.0930927,313.27582 c 0,-0.0282 -0.0282222,-0.0847 -0.0282222,-0.11289 l -0.53622181,-0.64911 c -3.13266429,1.32644 -6.26532849,2.032 -6.26532849,2.032 l -2.5964424,2.17311 0.5362218,0.64911 c 0,0 3.0762198,-0.70556 6.1524397,-2.00378 l 0.3668886,0.42333 c 0.987777,1.18534 4.2615522,1.524 4.2615522,1.524 l 2.5964425,-2.17311 -0.5362218,-0.64911 c 0,0 -2.7093313,-0.28222 -3.9511081,-1.21355 z m -11.2888797,28.7302 v -8.09977 H 4.3264228 l 1.8908874,-1.60867 v 11.20421 l 0.705555,0.87489 2.82222,-2.37066 V 321.06514 L 9.011308,320.19026 H -9.3049 l -1.890887,1.60866 v -0.73378 l -0.733778,-0.87488 -2.793998,2.37066 v 20.94087 l 0.705556,0.87489 z m 0,-18.59843 H 6.2173102 v 7.2531 H -9.3049 l -1.890887,1.60867 z m 6.7945208,27.79886 h 3.55599729 l 2.59644241,-2.1731 -0.5362218,-0.64912 h -3.5559972 l -2.5964425,2.20134 z M 28.25182,317.39626 c 1.495776,0 2.850442,-0.47978 3.809997,-1.27 l 2.596442,-2.17311 c 0.874888,-0.762 1.439332,-1.80622 1.439332,-3.01978 l -0.564444,-0.64911 -2.596442,2.17311 c 0,0.62089 -0.141111,1.21356 -0.395111,1.72156 -0.677333,0.254 -1.439332,0.39511 -2.229554,0.39511 0,0 -0.479777,0 -0.64911,0 -1.467555,0 -2.765776,-0.53622 -3.640664,-1.35467 -0.338667,-0.508 -0.508,-1.07244 -0.508,-1.69333 l -0.564444,-0.64911 -2.596442,2.17311 c 0,0.762 0.282222,1.43933 0.790221,2.032 l 0.536222,0.64911 c 0.846666,1.016 2.285998,1.66511 3.922886,1.66511 0.169333,0 0.649111,0 0.649111,0 z m -2.342443,33.81019 h 3.555997 l 2.596443,-2.1731 -0.536222,-0.64912 h -3.555997 l -2.596443,2.20134 z m -4.120441,-10.01888 v -5.92666 h 12.925768 l 1.439332,-1.21355 v 10.27288 l 1.15711,1.41111 5.418662,-4.54378 V 320.2467 l -1.185332,-1.41111 H 23.228268 l -1.552221,1.29822 -1.072444,-1.29822 -5.39044,4.54378 v 20.94087 l 1.15711,1.41111 z m 0,-16.39709 h 14.3651 v 4.51555 H 23.228268 l -1.439332,1.21355 z m 27.1145,-1.38289 h 1.382888 l -2.088443,1.778 v 18.3162 l 0.705555,0.87489 h 20.940873 l 2.82222,-2.37066 -0.733777,-0.87489 H 51.725656 v -7.22488 h 12.897546 l 2.793998,-2.37067 -0.705555,-0.87489 H 53.334322 l -1.608666,1.35467 v -8.32555 l -0.225777,-0.28222 h 18.34443 l 2.82222,-2.34245 -0.733777,-0.87488 H 50.991879 l -2.793998,2.37066 z m 9.616738,27.79886 h 3.555997 l 2.596443,-2.1731 -0.536222,-0.64912 h -3.555997 l -2.596443,2.20134 z m 34.431084,-37.93063 c 0,-0.0282 -0.02822,-0.0847 -0.02822,-0.11289 l -0.536222,-0.64911 c -3.132664,1.32644 -6.265328,2.032 -6.265328,2.032 l -2.596442,2.17311 0.536221,0.64911 c 0,0 3.07622,-0.70556 6.15244,-2.00378 l 0.366889,0.42333 c 0.987777,1.18534 4.261552,1.524 4.261552,1.524 l 2.596442,-2.17311 -0.536222,-0.64911 c 0,0 -2.709331,-0.28222 -3.951108,-1.21355 z m -14.1111,10.13177 h 1.382888 l -2.088443,1.778 v 18.3162 l 0.705555,0.87489 h 20.940873 l 2.822219,-2.37066 -0.73378,-0.87489 H 81.662378 v -7.22488 h 12.897546 l 2.793998,-2.37067 -0.705555,-0.87489 H 83.271044 l -1.608666,1.35467 v -8.32555 l -0.225777,-0.28222 h 18.34443 l 2.822219,-2.34245 -0.73378,-0.87488 H 80.928601 l -2.793998,2.37066 z m 9.616738,27.79886 h 3.555997 l 2.596442,-2.1731 -0.536221,-0.64912 h -3.555998 l -2.596442,2.20134 z m 20.319984,-27.79886 h 11.65577 l -1.94733,1.63689 v 15.83265 l 0.22577,0.254 h -7.84577 l -2.79399,2.37066 0.70555,0.87489 h 20.94087 l 2.82222,-2.37066 -0.73377,-0.87489 h -11.85333 l 2.08844,-1.74978 V 323.5487 l -0.11288,-0.14111 h 7.78932 l 2.82222,-2.34245 -0.73377,-0.87488 h -20.94088 l -2.79399,2.37066 z m 9.61675,27.79886 h 3.556 l 2.59644,-2.1731 -0.53622,-0.64912 h -3.556 l -2.59644,2.20134 z m 19.61443,-20.79976 v 5.24933 c 0,3.75356 0,5.70089 0.84667,6.71689 l 0.73378,0.87488 c 0.93133,1.12889 2.87866,1.12889 6.9991,1.12889 h 5.22111 c 3.75355,0 5.7291,0 6.7451,-0.87489 l 2.794,-2.34244 c 1.12889,-0.95955 1.12889,-2.90689 1.12889,-6.9991 v -5.24933 c 0,-3.75356 0,-5.70089 -0.84667,-6.74511 l -0.73377,-0.84667 c -0.93134,-1.12888 -2.90689,-1.12888 -6.99911,-1.12888 h -5.24933 c -3.75355,0 -5.70088,0 -6.71688,0.87488 l -2.82222,2.34245 c -1.10067,0.93133 -1.10067,2.90688 -1.10067,6.9991 z m 3.52778,-1.49577 c 0,-2.48356 0,-4.17689 0.254,-5.334 1.12888,0 2.65288,-0.16933 4.79777,-0.16933 h 5.22111 c 3.58422,0 5.53155,0 6.57577,0.762 0,1.10066 0.56444,3.01977 0.56444,6.2371 v 5.24933 c 0,2.48356 0,4.17689 -0.254,5.334 -1.12888,0 -2.6811,0.14111 -4.79777,0.14111 h -5.24933 c -3.556,0 -5.50333,0 -6.57577,-0.73378 0,-1.12889 -0.53622,-3.01977 -0.53622,-6.2371 z m 6.79451,22.29553 h 3.556 l 2.59644,-2.1731 -0.53622,-0.64912 h -3.55599 l -2.59645,2.20134 z m 34.43109,-37.93063 c 0,-0.0282 -0.0282,-0.0847 -0.0282,-0.11289 l -0.53622,-0.64911 c -3.13267,1.32644 -6.26533,2.032 -6.26533,2.032 l -2.59645,2.17311 0.53623,0.64911 c 0,0 3.07622,-0.70556 6.15244,-2.00378 l 0.36688,0.42333 c 0.98778,1.18534 4.26156,1.524 4.26156,1.524 l 2.59644,-2.17311 -0.53622,-0.64911 c 0,0 -2.70933,-0.28222 -3.95111,-1.21355 z m -14.81666,17.13087 v 5.24933 c 0,3.75356 0,5.70089 0.84667,6.71689 l 0.73378,0.87488 c 0.93133,1.12889 2.87866,1.12889 6.9991,1.12889 h 5.22111 c 3.75355,0 5.72911,0 6.74511,-0.87489 l 2.79399,-2.34244 c 1.12889,-0.95955 1.12889,-2.90689 1.12889,-6.9991 v -5.24933 c 0,-3.75356 0,-5.70089 -0.84666,-6.74511 l -0.73378,-0.84667 c -0.93133,-1.12888 -2.90689,-1.12888 -6.99911,-1.12888 h -5.24933 c -3.75355,0 -5.70088,0 -6.71688,0.87488 l -2.82222,2.34245 c -1.10067,0.93133 -1.10067,2.90688 -1.10067,6.9991 z m 3.52778,-1.49577 c 0,-2.48356 0,-4.17689 0.254,-5.334 1.12889,0 2.65289,-0.16933 4.79777,-0.16933 h 5.22111 c 3.58422,0 5.53155,0 6.57577,0.762 0,1.10066 0.56445,3.01977 0.56445,6.2371 v 5.24933 c 0,2.48356 0,4.17689 -0.254,5.334 -1.12889,0 -2.68111,0.14111 -4.79778,0.14111 h -5.24933 c -3.55599,0 -5.50333,0 -6.57577,-0.73378 0,-1.12889 -0.53622,-3.01977 -0.53622,-6.2371 z m 6.79452,22.29553 h 3.55599 l 2.59645,-2.1731 -0.53623,-0.64912 h -3.55599 l -2.59645,2.20134 z m 30.31064,0 h 3.556 l 2.59644,-2.1731 -0.53622,-0.64912 h -3.556 l -2.59644,2.20134 z m -4.12044,-23.11398 c 0,-1.29822 0,-2.39888 0.0282,-3.30199 0.70556,0 1.524,0 2.42711,0 h 5.22111 c 3.24555,0 5.16466,0 6.29355,0.53622 0,1.15711 0.39511,2.99155 0.39511,5.89844 v 5.24933 c 0,1.29822 0,2.39888 -0.0565,3.30199 -0.70555,0 -1.49577,0 -2.39888,0 h -5.24933 c -3.24556,0 -5.16466,0 -6.26533,-0.56444 0,-1.12889 -0.39511,-2.96333 -0.39511,-5.87022 z m -6.57577,3.13267 v 5.24933 c 0,3.75355 0,5.70088 0.84666,6.71688 l 1.18533,1.41111 c 0.93134,1.12889 2.87867,1.12889 6.99911,1.12889 h 5.22111 c 3.75355,0 5.7291,0 6.7451,-0.87489 l 5.39044,-4.51555 c 1.12889,-0.95956 1.12889,-2.90689 1.12889,-6.99911 v -5.24933 c 0,-3.75355 0,-5.70088 -0.84666,-6.7451 l -0.19756,-0.19756 c 1.97555,-1.63689 3.92289,-3.27377 5.87022,-4.91066 v -3.38667 l -1.18534,-1.41111 -5.39044,4.54378 v 3.35844 l -0.47977,0.39511 c -1.016,0 -2.99156,-0.90311 -6.80155,-0.90311 h -5.24933 c -3.75355,0 -5.70089,0 -6.71689,0.87489 l -5.41866,4.51555 c -1.10066,0.93133 -1.10066,2.90689 -1.10066,6.99911 z m 53.92559,-8.66422 v 18.57021 h -17.41309 v -20.06599 l -0.73378,-0.87488 -2.794,2.37066 v 20.94087 l 0.70556,0.87489 h 18.34443 l 1.89088,-1.60866 v 0.73377 l 0.70556,0.87489 2.82222,-2.37066 v -20.94088 l -0.73378,-0.87488 z m -10.61859,28.64553 h 3.556 l 2.59644,-2.1731 -0.53622,-0.64912 h -3.556 l -2.59644,2.20134 z m 30.31064,0 h 3.556 l 2.59644,-2.1731 -0.53622,-0.64912 h -3.556 l -2.59644,2.20134 z m -10.69621,-27.82708 v 20.94087 l 1.15711,1.41111 h 18.34443 l 1.524,-1.29822 1.07244,1.29822 5.41866,-4.54378 v -20.91265 c 1.60867,-1.32644 3.21733,-2.68111 4.826,-4.03577 v -3.38667 l -1.18533,-1.41111 -5.39044,4.54378 v 3.33022 l -4.826,4.064 v 16.39709 h -14.3651 V 320.2467 l -1.18533,-1.41111 z m 57.59447,-2.14489 h -3.66889 l -9.42621,9.42621 h -7.93044 v -9.59555 l -0.73378,-0.87488 -2.794,2.37066 v 10.47044 l 0.73378,0.87489 h 7.47888 l -8.2691,8.2691 v 1.12889 h 3.66888 l 20.94088,-20.94087 z m -14.14637,29.97197 h 3.556 l 2.59644,-2.1731 -0.53622,-0.64912 h -3.556 l -2.59644,2.20134 z"
         id="path65" />
      <path
         style="font-family:'NewEng Hangeul';-inkscape-font-specification:'NewEng Hangeul';text-align:center;text-anchor:middle"
         d="m 150.89147,388.40331 v -11.3171 l -0.73377,-0.84666 -5.22111,-5.24933 h -13.0951 l -1.89089,1.60866 v -0.73378 l -0.73378,-0.87488 -2.82222,2.37066 v 5.27755 h -0.36689 l -2.79399,2.37067 0.70555,0.87489 h 2.45533 v 12.41776 l 0.73378,0.87489 2.82222,-2.37066 v -10.92199 h 5.02355 l 2.82222,-2.37067 -0.73378,-0.87489 h -7.11199 v -4.43088 h 12.89755 l 4.48733,4.51555 v 11.17599 l 0.73377,0.87489 z m -8.04332,6.77333 c 1.43933,-1.24178 2.90688,-2.45533 4.34621,-3.66888 l -0.70555,-0.87489 -1.55222,1.29822 h -13.0951 l -2.82222,2.37066 0.73377,0.87489 z"
         id="path66" />
    </g>
  </g>
</svg>
