<?xml version="1.0" encoding="UTF-8" standalone="no"?>
<!-- Created with Inkscape (http://www.inkscape.org/) -->

<svg
   width="1005.9199"
   height="479.69296"
   viewBox="0 0 266.14963 126.91877"
   version="1.1"
   id="svg1"
   inkscape:version="1.4 (86a8ad7, 2024-10-11)"
   sodipodi:docname="Alphabet Hangeulic Regular Diacritics Consonants.svg"
   xmlns:inkscape="http://www.inkscape.org/namespaces/inkscape"
   xmlns:sodipodi="http://sodipodi.sourceforge.net/DTD/sodipodi-0.dtd"
   xmlns="http://www.w3.org/2000/svg"
   xmlns:svg="http://www.w3.org/2000/svg">
  <sodipodi:namedview
     id="namedview1"
     pagecolor="#ffffff"
     bordercolor="#000000"
     borderopacity="0.25"
     inkscape:showpageshadow="2"
     inkscape:pageopacity="0.0"
     inkscape:pagecheckerboard="0"
     inkscape:deskcolor="#d1d1d1"
     inkscape:document-units="px"
     inkscape:zoom="0.85280275"
     inkscape:cx="505.97867"
     inkscape:cy="354.71274"
     inkscape:window-width="1920"
     inkscape:window-height="1027"
     inkscape:window-x="-8"
     inkscape:window-y="-8"
     inkscape:window-maximized="1"
     inkscape:current-layer="layer1" />
  <defs
     id="defs1" />
  <g
     inkscape:label="Layer 1"
     inkscape:groupmode="layer"
     id="layer1"
     transform="translate(-4.6880104,-54.166037)">
    <text
       xml:space="preserve"
       style="font-size:28.2222px;line-height:1.6;font-family:'BlockTrain Hand';-inkscape-font-specification:'BlockTrain Hand';text-align:start;letter-spacing:2.64583px;writing-mode:lr-tb;direction:ltr;text-anchor:start;display:none;fill:#19919b;fill-opacity:1;stroke:#7c7c7c;stroke-width:0.79375;stroke-dasharray:none;stroke-opacity:1"
       x="138.19148"
       y="88.739998"
       id="text1"><tspan
         style="font-style:normal;font-variant:normal;font-weight:normal;font-stretch:normal;font-size:28.2222px;line-height:1.6;font-family:'NewEng Hangeul';-inkscape-font-specification:'NewEng Hangeul';text-align:center;letter-spacing:2.64583px;text-anchor:middle;fill:#19919b;fill-opacity:1;stroke:#7c7c7c;stroke-width:0.79375;stroke-dasharray:none;stroke-opacity:1"
         x="138.19148"
         y="88.739998"
         sodipodi:role="line"
         id="tspan8">c̊čç̌d̈f̈g̊g̃ǧ</tspan><tspan
         style="font-style:normal;font-variant:normal;font-weight:normal;font-stretch:normal;font-size:28.2222px;line-height:1.6;font-family:'NewEng Hangeul';-inkscape-font-specification:'NewEng Hangeul';text-align:center;letter-spacing:2.64583px;text-anchor:middle;fill:#19919b;fill-opacity:1;stroke:#7c7c7c;stroke-width:0.79375;stroke-dasharray:none;stroke-opacity:1"
         x="138.1915"
         y="133.89552"
         sodipodi:role="line"
         id="tspan16">ȝ̊ȝ̌ǰʞ̌ñp̀q̌šs̈</tspan><tspan
         style="font-style:normal;font-variant:normal;font-weight:normal;font-stretch:normal;font-size:28.2222px;line-height:1.6;font-family:'NewEng Hangeul';-inkscape-font-specification:'NewEng Hangeul';text-align:center;letter-spacing:2.64583px;text-anchor:middle;fill:#19919b;fill-opacity:1;stroke:#7c7c7c;stroke-width:0.79375;stroke-dasharray:none;stroke-opacity:1"
         x="139.5144"
         y="179.05104"
         sodipodi:role="line"
         id="tspan17">s̈̌ẗťч̌x̌ẍẍ̌z̈ž</tspan></text>
    <g
       id="text24"
       style="font-size:28.2222px;line-height:1.6;font-family:'BlockTrain Hand';-inkscape-font-specification:'BlockTrain Hand';letter-spacing:2.64583px;fill:#19919b;stroke:#7c7c7c;stroke-width:0.79375"
       aria-label="c̊čç̌d̈f̈g̊g̃ǧ&#10;ȝ̊ȝ̌ǰʞ̌ñp̀q̌šs̈&#10;s̈̌ẗťч̌x̌ẍẍ̌z̈ž">
      <path
         style="font-family:'NewEng Hangeul';-inkscape-font-specification:'NewEng Hangeul';text-align:center;text-anchor:middle"
         d="m 20.561248,69.407791 h 1.382888 l -2.088443,1.777998 v 18.316208 l 0.705555,0.874888 h 20.940873 l 2.82222,-2.370664 -0.733777,-0.874889 H 23.383468 V 69.690013 l -0.225777,-0.282222 h 18.34443 l 2.82222,-2.342443 -0.733777,-0.874888 H 22.649691 l -2.793998,2.370665 z M 35.822426,54.562912 c -0.620888,0 -1.552221,0.112889 -2.427109,0.846666 l -2.596442,2.17311 c -0.112889,0.08467 -0.225778,0.197555 -0.338667,0.338666 l 0.197556,0.225778 -0.677333,0.564444 c -0.08467,0.254 -0.08467,0.310444 -0.08467,0.592666 0,1.100666 0.479778,1.693332 0.620889,1.834443 l 0.536221,0.649111 c 0.564444,0.64911 1.41111,1.044221 2.42711,1.044221 0.112888,0 0.423333,-0.02822 0.423333,-0.02822 0.564444,0 1.608665,-0.112889 2.427109,-0.790222 l 2.596442,-2.173109 c 0.225778,-0.197556 0.423333,-0.423333 0.592667,-0.705555 l -0.366889,-0.451555 0.649111,-0.536222 c 0.02822,-0.141111 0.02822,-0.254 0.02822,-0.395111 0,-0.310444 -0.08467,-0.592666 -0.169333,-0.874888 -0.112889,-0.282222 -0.169334,-0.338667 -0.931333,-1.241777 -0.423333,-0.508 -1.213555,-1.072444 -2.483554,-1.072444 -0.112889,0 -0.423333,0 -0.423333,0 z m -2.765775,2.878665 c 0.253999,-0.02822 0.507999,-0.05645 0.705555,-0.05645 0,0 0.310444,0 0.423333,0 1.015999,0 1.749776,0.366889 2.201331,0.762 0.169333,0.282222 0.310444,0.733777 0.310444,1.15711 0,0.112889 -0.02822,0.225778 -0.02822,0.366889 l 0.169333,0.225777 c -0.338666,0.08467 -0.64911,0.08467 -0.874888,0.08467 0,0 -0.310444,0 -0.423333,0 -0.846666,0 -1.580443,-0.254 -2.144887,-0.705555 -0.282222,-0.508 -0.366889,-1.072444 -0.366889,-1.495777 0,-0.169333 0,-0.254 0.02822,-0.338666 z m 17.441323,11.966214 h 1.382888 l -2.088443,1.777998 v 18.316208 l 0.705555,0.874888 h 20.940873 l 2.82222,-2.370664 -0.733778,-0.874889 H 53.320194 V 69.690013 l -0.225778,-0.282222 h 18.344431 l 2.82222,-2.342443 -0.733778,-0.874888 H 52.586417 l -2.793998,2.370665 z m 20.228264,-8.805347 c 0,0 -2.539998,0.564444 -3.97933,1.749776 l -0.931332,0.790222 -0.05644,-0.05645 c -1.072443,-1.298221 -5.813773,-2.483553 -5.813773,-2.483553 l -2.596443,2.201331 0.536222,0.649111 c 0,0 4.007553,0.959555 5.503329,2.144887 l 0.508,0.620889 2.31422,-1.947332 c 1.241777,-0.564444 2.455332,-0.818444 2.455332,-0.818444 L 71.26246,61.251554 Z M 83.25692,76.689118 v -6.999105 l -0.225778,-0.282222 h 18.344428 l 2.82222,-2.342443 -0.73377,-0.874888 H 82.523142 l -2.793998,2.370665 0.705555,0.846666 h 1.382888 l -2.088443,1.777998 v 7.873994 l 0.705555,0.874888 h 15.070656 l -1.354666,1.128888 v 6.067773 H 86.72825 l -2.793998,2.370665 0.705555,0.874888 h 10.216437 l 2.82222,-2.370664 v -8.07155 h 3.697106 l 2.82222,-2.370664 -0.73377,-0.874889 z m 18.95827,-17.215534 c 0,0 -2.540001,0.564444 -3.979333,1.749776 l -0.931333,0.790222 -0.05644,-0.05644 c -1.072444,-1.298221 -5.813773,-2.483553 -5.813773,-2.483553 l -2.596443,2.201331 0.536222,0.649111 c 0,0 4.007553,0.959555 5.503329,2.144887 l 0.508,0.620889 2.31422,-1.947332 c 1.241777,-0.564444 2.455335,-0.818444 2.455335,-0.818444 l 2.59644,-2.201332 z m 7.45068,9.087541 v 20.940872 l 0.70555,0.874888 2.82222,-2.370664 v -18.59843 h 12.89755 l 4.51555,4.515552 v 11.175991 l 0.70555,0.874888 2.82222,-2.370665 V 72.286455 l -0.73377,-0.846666 -5.22111,-5.249329 h -13.0951 l -1.89089,1.608665 v -0.733777 l -0.73378,-0.874888 z m 3.33022,21.81576 h 13.0951 c 1.43933,-1.241776 2.90688,-2.455331 4.34622,-3.668886 l -0.70556,-0.874888 -1.55222,1.298221 h -13.0951 l -2.82222,2.370665 z m 12.77763,-26.698183 h 3.556 l 2.59644,-2.201331 -0.53622,-0.649111 h -3.556 l -2.59644,2.201332 z m -8.46666,0 h 3.556 l 2.59644,-2.201331 -0.53622,-0.649111 h -3.556 l -2.59644,2.201332 z m 23.00109,5.729089 h 1.38289 l -2.08844,1.777998 v 18.316208 l 0.70555,0.874888 2.82222,-2.370664 v -8.099772 h 12.89755 l 2.79399,-2.370665 -0.70555,-0.874888 h -13.0951 l -1.89089,1.608666 v -8.579549 l -0.22578,-0.282222 h 18.34443 l 2.82222,-2.342443 -0.73377,-0.874888 h -20.94088 l -2.79399,2.370665 z m 15.40229,-5.729089 h 3.556 l 2.59644,-2.201331 -0.53622,-0.649111 h -3.556 l -2.59644,2.201332 z m -8.46666,0 h 3.556 L 153.39622,61.477371 152.86,60.82826 h -3.556 l -2.59644,2.201332 z m 23.11398,5.729089 h 1.27 l -2.08844,1.777998 v 18.316208 l 0.70555,0.874888 h 20.94088 l 2.82222,-2.370664 -0.73378,-0.874889 h -1.35467 l 2.08845,-1.749776 v -7.845772 l -0.73378,-0.874888 h -10.47044 l -2.794,2.370665 0.70556,0.874888 h 9.76488 v 6.970884 l 0.19756,0.253999 H 173.06709 V 69.690013 l -0.22578,-0.282222 h 18.34444 l 2.82222,-2.342443 -0.73378,-0.874888 H 172.4462 l -2.82222,2.370665 z m 15.14829,-14.844879 c -0.62089,0 -1.55222,0.112889 -2.42711,0.846666 l -2.59644,2.17311 c -0.11289,0.08467 -0.22578,0.197555 -0.33867,0.338666 l 0.19756,0.225778 -0.67733,0.564444 c -0.0847,0.254 -0.0847,0.310444 -0.0847,0.592666 0,1.100666 0.47978,1.693332 0.62089,1.834443 l 0.53622,0.649111 c 0.56444,0.64911 1.41111,1.044221 2.42711,1.044221 0.11289,0 0.42333,-0.02822 0.42333,-0.02822 0.56444,0 1.60867,-0.112889 2.42711,-0.790222 l 2.59644,-2.173109 c 0.22578,-0.197556 0.42334,-0.423333 0.59267,-0.705555 l -0.36689,-0.451555 0.64911,-0.536222 c 0.0282,-0.141111 0.0282,-0.254 0.0282,-0.395111 0,-0.310444 -0.0847,-0.592666 -0.16933,-0.874888 -0.11289,-0.282222 -0.16933,-0.338667 -0.93133,-1.241777 -0.42334,-0.508 -1.21356,-1.072444 -2.48356,-1.072444 -0.11289,0 -0.42333,0 -0.42333,0 z m -2.76578,2.878665 c 0.254,-0.02822 0.508,-0.05645 0.70556,-0.05645 0,0 0.31044,0 0.42333,0 1.016,0 1.74978,0.366889 2.20133,0.762 0.16934,0.282222 0.31045,0.733777 0.31045,1.15711 0,0.112889 -0.0282,0.225778 -0.0282,0.366889 l 0.16933,0.225777 c -0.33867,0.08467 -0.64911,0.08467 -0.87489,0.08467 0,0 -0.31044,0 -0.42333,0 -0.84667,0 -1.58044,-0.254 -2.14489,-0.705555 -0.28222,-0.508 -0.36689,-1.072444 -0.36689,-1.495777 0,-0.169333 0,-0.254 0.0282,-0.338666 z m 17.55421,11.966214 h 1.27 l -2.08844,1.777998 v 18.316208 l 0.70555,0.874888 h 20.94088 l 2.82222,-2.370664 -0.73378,-0.874889 h -1.35467 l 2.08845,-1.749776 v -7.845772 l -0.73378,-0.874888 h -10.47044 l -2.79399,2.370665 0.70555,0.874888 h 9.76488 v 6.970884 l 0.19756,0.253999 H 203.00381 V 69.690013 l -0.22577,-0.282222 h 18.34443 l 2.82222,-2.342443 -0.73378,-0.874888 h -20.82798 l -2.82222,2.370665 z m 11.14076,-12.248417 c -0.79023,0 -1.38289,0.254 -1.80623,0.592666 l -2.59644,2.17311 c -0.508,0.423333 -0.73378,1.044221 -0.73378,1.636887 0,0.508 0.14112,0.987777 0.47978,1.382888 l 0.53622,0.649111 c 0.39511,0.479777 1.04423,0.818444 1.89089,0.818444 l 2.59644,-2.201332 -0.53622,-0.649111 c -0.67733,0 -1.18533,-0.169333 -1.58044,-0.479777 -0.16933,-0.338666 -0.254,-0.677333 -0.254,-1.044221 0,0 0,-0.02822 0,-0.02822 2.06022,0.05644 4.40266,4.402664 7.78933,4.402664 0.762,0 1.35466,-0.225778 1.77799,-0.592667 l 2.59645,-2.173109 c 0.508,-0.423333 0.762,-1.044221 0.762,-1.636888 0,-0.479777 -0.16934,-0.959554 -0.47978,-1.354665 l -0.56444,-0.649111 c -0.39512,-0.479777 -1.07245,-0.846666 -2.032,-0.846666 l -2.59645,2.201332 0.53623,0.64911 c 0.762,0 1.32644,0.197556 1.74977,0.536222 0.16934,0.310444 0.254,0.649111 0.254,0.987777 0,0 0,0.02822 0,0.02822 -3.38666,-0.05644 -5.7291,-4.402663 -7.78932,-4.402663 z m 18.79598,12.248417 h 1.27 l -2.08844,1.777998 v 18.316208 l 0.70555,0.874888 h 20.94087 l 2.82222,-2.370664 -0.73377,-0.874889 h -1.35467 l 2.08844,-1.749776 v -7.845772 l -0.73377,-0.874888 h -10.47044 l -2.794,2.370665 0.70556,0.874888 h 9.76488 v 6.970884 l 0.19755,0.253999 H 232.94055 V 69.690013 l -0.22578,-0.282222 h 18.34443 l 2.82222,-2.342443 -0.73377,-0.874888 h -20.82799 l -2.82222,2.370665 z m 20.11537,-8.805347 c 0,0 -2.54,0.564444 -3.97933,1.749776 l -0.93133,0.790222 -0.0565,-0.05645 c -1.07244,-1.298221 -5.81377,-2.483553 -5.81377,-2.483553 l -2.59644,2.201331 0.53622,0.649111 c 0,0 4.00755,0.959555 5.50333,2.144887 l 0.508,0.620889 2.31422,-1.947332 c 1.24177,-0.564444 2.45533,-0.818444 2.45533,-0.818444 l 2.59644,-2.201332 z"
         id="path24" />
      <path
         style="font-family:'NewEng Hangeul';-inkscape-font-specification:'NewEng Hangeul';text-align:center;text-anchor:middle"
         d="m 25.828203,114.59153 v 3.66889 l -4.317997,3.58422 H 13.86199 l -2.793998,2.37066 0.705555,0.87489 h 7.648216 c 3.301998,-2.76577 6.632217,-5.53155 9.934215,-8.29732 v -4.572 l -0.733777,-0.87489 H 7.8788832 l -2.7939978,2.37067 0.705555,0.87488 z M 5.7904404,135.53241 H 19.393541 c 3.33022,-2.794 6.660439,-5.53155 9.962437,-8.32555 v -4.48733 l -0.733777,-0.87489 h -3.951109 l -2.793997,2.37066 0.705555,0.87489 h 3.21733 v 3.58422 l -4.317996,3.61244 H 7.8788832 l -2.7939978,2.37067 z M 20.2614,99.520879 c -0.620888,0 -1.552221,0.112889 -2.427109,0.846671 l -2.596443,2.1731 c -0.112888,0.0847 -0.225777,0.19756 -0.338666,0.33867 l 0.197555,0.22578 -0.677332,0.56444 c -0.08467,0.254 -0.08467,0.31045 -0.08467,0.59267 0,1.10066 0.479777,1.69333 0.620888,1.83444 l 0.536222,0.64911 c 0.564444,0.64911 1.41111,1.04422 2.427109,1.04422 0.112889,0 0.423333,-0.0282 0.423333,-0.0282 0.564444,0 1.608666,-0.11289 2.42711,-0.79022 l 2.596442,-2.17311 c 0.225778,-0.19755 0.423333,-0.42333 0.592666,-0.70555 l -0.366888,-0.45156 0.64911,-0.53622 c 0.02822,-0.14111 0.02822,-0.254 0.02822,-0.39511 0,-0.31045 -0.08467,-0.59267 -0.169334,-0.87489 -0.112888,-0.28222 -0.169333,-0.33867 -0.931332,-1.24178 -0.423333,-0.508 -1.213555,-1.072441 -2.483554,-1.072441 -0.112889,0 -0.423333,0 -0.423333,0 z m -2.765776,2.878661 c 0.254,-0.0282 0.508,-0.0564 0.705555,-0.0564 0,0 0.310445,0 0.423333,0 1.016,0 1.749777,0.36689 2.201332,0.762 0.169333,0.28222 0.310444,0.73378 0.310444,1.15711 0,0.11289 -0.02822,0.22578 -0.02822,0.36689 l 0.169333,0.22577 c -0.338666,0.0847 -0.64911,0.0847 -0.874888,0.0847 0,0 -0.310444,0 -0.423333,0 -0.846666,0 -1.580443,-0.254 -2.144887,-0.70555 -0.282222,-0.508 -0.366889,-1.07245 -0.366889,-1.49578 0,-0.16933 0,-0.254 0.02822,-0.33867 z m 38.071749,12.19199 v 3.66889 l -4.317997,3.58422 H 43.60116 l -2.793998,2.37066 0.705555,0.87489 h 7.648216 c 3.301998,-2.76577 6.632217,-5.53155 9.934215,-8.29732 v -4.572 l -0.733777,-0.87489 H 37.618053 l -2.793998,2.37067 0.705555,0.87488 z M 35.52961,135.53241 h 13.603101 c 3.33022,-2.794 6.660439,-5.53155 9.962437,-8.32555 v -4.48733 l -0.733777,-0.87489 h -3.951108 l -2.793998,2.37066 0.705555,0.87489 h 3.217331 v 3.58422 l -4.317997,3.61244 H 37.618053 l -2.793998,2.37067 z m 19.494512,-32.65309 c 0,0 -2.539998,0.56444 -3.97933,1.74978 l -0.931333,0.79022 -0.05644,-0.0564 c -1.072444,-1.29822 -5.813774,-2.48355 -5.813774,-2.48355 l -2.596442,2.20133 0.536222,0.64911 c 0,0 4.007552,0.95956 5.503329,2.14489 l 0.507999,0.62089 2.314221,-1.94733 c 1.241777,-0.56445 2.455331,-0.81845 2.455331,-0.81845 l 2.596443,-2.20133 z m 10.244659,11.68399 h 11.853324 l -2.088443,1.778 v 15.94554 h -6.942661 v -4.37444 l -0.733778,-0.84666 -2.793997,2.34244 v 5.24933 l 0.705555,0.87489 h 7.873993 l 1.890888,-1.60867 v 0.73378 l 0.705555,0.87489 2.82222,-2.37067 v -18.31621 l -0.225778,-0.28222 h 7.873994 l 2.82222,-2.34244 -0.733777,-0.87489 H 67.357223 l -2.793997,2.37067 z m 20.228256,-8.80534 c 0,0 -2.539998,0.56444 -3.97933,1.74977 l -0.931332,0.79022 -0.05645,-0.0564 c -1.072443,-1.29822 -5.813773,-2.48355 -5.813773,-2.48355 l -2.596443,2.20133 0.536222,0.64911 c 0,0 4.007553,0.95955 5.503329,2.14488 l 0.508,0.62089 2.31422,-1.94733 c 1.241777,-0.56444 2.455332,-0.81844 2.455332,-0.81844 l 2.596442,-2.20133 z m 11.542908,28.70199 h 3.668885 l 8.55133,-8.55132 v -0.84667 h 4.28977 l 1.89089,-1.60866 v 11.20421 l 0.70556,0.87489 2.82222,-2.37067 v -20.94087 l -0.73378,-0.87489 -2.794,2.37067 v 8.09977 H 102.8255 l -4.797778,-9.59555 -0.733777,-0.87489 -2.793998,2.37067 5.221107,10.47043 0.733776,0.87489 h 4.88244 l -8.297325,8.26911 z m 17.857625,-31.58064 c 0,0 -2.54,0.56444 -3.97933,1.74978 l -0.93133,0.79022 -0.0564,-0.0564 c -1.07245,-1.29822 -5.81378,-2.48355 -5.81378,-2.48355 l -2.59644,2.20133 0.53622,0.64911 c 0,0 4.00755,0.95956 5.50333,2.14489 l 0.508,0.62089 2.31422,-1.94733 c 1.24178,-0.56445 2.45533,-0.81845 2.45533,-0.81845 l 2.59644,-2.20133 z m 18.88066,-0.53622 c -0.79023,0 -1.38289,0.22578 -1.80623,0.56444 l -2.59644,2.17311 c -0.508,0.45156 -0.762,1.04422 -0.762,1.66511 0,0.47978 0.16934,0.98778 0.508,1.38289 l 0.53622,0.64911 c 0.39511,0.45156 1.04423,0.79022 1.89089,0.79022 l 2.59644,-2.17311 -0.53622,-0.64911 c -0.67733,0 -1.21355,-0.19755 -1.58044,-0.508 -0.16933,-0.31044 -0.254,-0.67733 -0.254,-1.016 0,-0.0282 0,-0.0564 0,-0.0564 2.06022,0.0564 4.40266,4.40266 7.78933,4.40266 0.762,0 1.35466,-0.22578 1.74977,-0.59266 l 2.59645,-2.17311 c 0.50799,-0.42334 0.79022,-1.016 0.79022,-1.63689 0,-0.47978 -0.16934,-0.95956 -0.508,-1.35467 l -0.53622,-0.64911 c -0.42334,-0.47977 -1.10067,-0.81844 -2.032,-0.81844 l -2.59645,2.17311 0.53623,0.64911 c 0.73377,0 1.32644,0.19755 1.74977,0.53622 0.14111,0.31045 0.22578,0.64911 0.22578,0.98778 0,0.0282 0,0.0282 0,0.0564 -3.35844,-0.0564 -5.70088,-4.40266 -7.7611,-4.40266 z m -9.34155,11.37355 v 20.94087 l 0.70555,0.87489 2.82222,-2.37067 v -15.77621 l 15.52221,15.52221 1.89089,-1.58044 v 3.33022 l 0.70555,0.87489 2.82222,-2.37067 v -20.94087 l -0.73377,-0.87489 -2.794,2.37067 v 15.77621 l -15.52221,-15.52221 -1.89089,1.58044 v -3.33022 l -0.73378,-0.87489 z m 29.93672,0 v 20.94087 l 0.70555,0.87489 2.82222,-2.37067 v -5.50333 h 15.52221 l 1.89089,-1.58044 v 0.73378 l 0.70556,0.84666 2.82222,-2.34244 v -13.0951 l -0.73378,-0.87489 h -18.31621 l -1.89089,1.60867 v -0.73378 l -0.73377,-0.87489 z m 3.52777,0.84666 h 17.4131 v 9.87777 h -15.52221 l -1.89089,1.58045 z m 16.84162,-8.57953 c -0.50799,-0.39511 -2.59644,-1.80622 -8.91821,-2.70933 l -2.59644,2.20133 0.53622,0.64911 c 6.32177,0.87489 8.41021,2.286 8.91821,2.70933 l 2.59645,-2.20133 z m 20.03777,18.2033 v 5.50333 h -6.94266 v -15.1271 h 17.41309 v 14.84488 l 0.19756,0.28222 h -7.14022 v -6.9991 l -0.73378,-0.87489 z m 11.90977,5.50333 2.08844,-1.778 v -15.69154 l -0.73378,-0.87489 h -18.31621 l -1.89088,1.60867 v -0.73378 l -0.73378,-0.87489 -2.794,2.37067 v 18.3162 l 0.70556,0.87489 h 9.76488 v 4.37444 l 0.70555,0.84667 2.82222,-2.34244 v -2.87867 h 7.64822 l 2.82222,-2.37066 -0.73378,-0.84667 z m -1.44638,-23.93244 c 0,0 -2.54,0.56444 -3.97933,1.74977 l -0.93134,0.79022 -0.0564,-0.0564 c -1.07244,-1.29822 -5.81377,-2.48355 -5.81377,-2.48355 l -2.59645,2.20133 0.53623,0.64911 c 0,0 4.00755,0.95955 5.50333,2.14488 l 0.508,0.62089 2.31422,-1.94733 c 1.24177,-0.56444 2.45533,-0.81844 2.45533,-0.81844 l 2.59644,-2.20133 z m 9.70846,8.80534 h 1.38289 l -2.08844,1.778 v 7.84577 l 0.70555,0.87489 h 20.23532 v 7.22488 h -18.14687 l -2.794,2.37067 0.70555,0.87489 h 18.34443 l 1.89089,-1.60867 v 0.73378 l 0.70556,0.87489 2.82222,-2.37067 v -10.47043 l -0.73378,-0.87489 h -20.2071 v -6.97089 l -0.22578,-0.28222 h 18.34444 l 2.82222,-2.34244 -0.73378,-0.87489 h -20.94087 l -2.794,2.37067 z m 20.22826,-8.80534 c 0,0 -2.54,0.56444 -3.97933,1.74977 l -0.93133,0.79022 -0.0565,-0.0564 c -1.07244,-1.29822 -5.81377,-2.48355 -5.81377,-2.48355 l -2.59644,2.20133 0.53622,0.64911 c 0,0 4.00755,0.95955 5.50333,2.14488 l 0.508,0.62089 2.31422,-1.94733 c 1.24177,-0.56444 2.45533,-0.81844 2.45533,-0.81844 l 2.59644,-2.20133 z m 9.70846,8.80534 h 1.38289 l -2.08844,1.778 v 7.84577 l 0.70555,0.87489 h 20.23532 v 7.22488 h -18.14687 l -2.794,2.37067 0.70555,0.87489 h 18.34443 l 1.89089,-1.60867 v 0.73378 l 0.70556,0.87489 2.82222,-2.37067 v -10.47043 l -0.73378,-0.87489 h -20.2071 v -6.97089 l -0.22577,-0.28222 h 18.34443 l 2.82222,-2.34244 -0.73378,-0.87489 h -20.94087 l -2.794,2.37067 z m 15.40229,-5.72909 h 3.556 l 2.59644,-2.20133 -0.53622,-0.64911 h -3.556 l -2.59644,2.20133 z m -8.46666,0 h 3.556 l 2.59644,-2.20133 -0.53622,-0.64911 h -3.556 l -2.59644,2.20133 z"
         id="path25" />
      <path
         style="font-family:'NewEng Hangeul';-inkscape-font-specification:'NewEng Hangeul';text-align:center;text-anchor:middle"
         d="m 6.6477564,159.71883 h 1.3828879 l -2.0884429,1.778 v 7.84577 l 0.705555,0.87489 H 26.883074 v 7.22489 H 8.7361993 l -2.7939979,2.37066 0.705555,0.87489 H 24.992187 l 1.890887,-1.60867 v 0.73378 l 0.705555,0.87489 2.82222,-2.37067 v -10.47043 l -0.733777,-0.87489 H 9.4699765 v -6.97088 L 9.2441989,159.71883 H 27.588629 l 2.82222,-2.34244 -0.733777,-0.87489 H 8.7361993 l -2.7939979,2.37067 z m 15.4022886,-5.72909 h 3.555998 l 2.596442,-2.20133 -0.536222,-0.64911 h -3.555997 l -2.596442,2.20133 z m -8.46666,0 h 3.555998 l 2.596442,-2.20133 -0.536222,-0.64911 h -3.555997 l -2.596442,2.20133 z m 13.292634,-3.07625 c 0,0 -2.539998,0.56444 -3.97933,1.74977 l -0.931333,0.79022 -0.05644,-0.0564 c -1.072444,-1.29822 -5.813773,-2.48355 -5.813773,-2.48355 l -2.596443,2.20133 0.536222,0.64911 c 0,0 4.007552,0.95955 5.503329,2.14489 l 0.508,0.62088 2.31422,-1.94733 c 1.241777,-0.56444 2.455331,-0.81844 2.455331,-0.81844 l 2.596443,-2.20133 z m 9.708463,8.80534 h 11.853324 l -2.088443,1.778 v 18.31621 l 0.705555,0.87489 2.82222,-2.37067 v -18.3162 l -0.225777,-0.28223 h 7.873994 l 2.82222,-2.34244 -0.733777,-0.87489 H 38.672925 l -2.793998,2.37067 z m 15.402289,-5.72909 h 3.555997 l 2.596443,-2.20133 -0.536222,-0.64911 h -3.555997 l -2.596443,2.20133 z m -8.46666,0 h 3.555997 l 2.596443,-2.20133 -0.536222,-0.64911 h -3.555997 l -2.596443,2.20133 z m 23.001097,5.72909 h 11.853324 l -2.088443,1.778 v 18.31621 l 0.705555,0.87489 2.82222,-2.37067 v -18.3162 l -0.225778,-0.28223 h 7.873994 l 2.82222,-2.34244 -0.733777,-0.87489 H 68.609651 l -2.793998,2.37067 z m 20.228257,-8.80534 c 0,0 -2.539998,0.56444 -3.979331,1.74977 l -0.931332,0.79022 -0.05644,-0.0564 c -1.072443,-1.29822 -5.813773,-2.48355 -5.813773,-2.48355 l -2.596442,2.20133 0.536221,0.64911 c 0,0 4.007553,0.95955 5.503329,2.14489 l 0.508,0.62088 2.314221,-1.94733 c 1.241776,-0.56444 2.455331,-0.81844 2.455331,-0.81844 l 2.596442,-2.20133 z m 12.530685,16.05845 v -9.59555 l -0.733778,-0.87489 -2.793998,2.37067 v 10.47043 l 0.705555,0.87489 h 18.344431 l 1.89089,-1.60866 v 11.20421 l 0.70555,0.87489 2.82222,-2.37067 v -20.94087 l -0.73378,-0.87489 -2.79399,2.37067 v 8.09977 z M 116.15,148.03484 c 0,0 -2.54,0.56445 -3.97933,1.74978 l -0.93133,0.79022 -0.0564,-0.0564 c -1.07244,-1.29823 -5.81377,-2.48356 -5.81377,-2.48356 l -2.59644,2.20133 0.53622,0.64911 c 0,0 4.00755,0.95956 5.50333,2.14489 l 0.508,0.62089 2.31422,-1.94733 c 1.24177,-0.56445 2.45533,-0.81845 2.45533,-0.81845 l 2.59644,-2.20133 z m 34.14886,9.51088 h -3.66888 l -9.42622,9.42622 h -7.93044 v -9.59555 l -0.73377,-0.87489 -2.794,2.37067 v 10.47043 l 0.73378,0.87489 h 7.47888 l -8.26911,8.26911 v 1.12888 h 3.66889 l 9.39799,-9.39799 h 7.93044 v 9.59555 l 0.73378,0.87489 2.794,-2.37067 v -10.47043 l -0.70556,-0.87489 h -7.5071 l 8.29732,-8.29733 z m -3.67594,-6.63223 c 0,0 -2.54,0.56444 -3.97933,1.74977 l -0.93134,0.79022 -0.0564,-0.0564 c -1.07245,-1.29822 -5.81377,-2.48355 -5.81377,-2.48355 l -2.59645,2.20133 0.53622,0.64911 c 0,0 4.00756,0.95955 5.50333,2.14489 l 0.508,0.62088 2.31422,-1.94733 c 1.24178,-0.56444 2.45534,-0.81844 2.45534,-0.81844 l 2.59644,-2.20133 z m 33.75375,6.63223 h -3.66889 l -9.42621,9.42622 h -7.93044 v -9.59555 l -0.73378,-0.87489 -2.794,2.37067 v 10.47043 l 0.73378,0.87489 h 7.47888 l -8.2691,8.26911 v 1.12888 h 3.66888 l 9.398,-9.39799 h 7.93044 v 9.59555 l 0.73377,0.87489 2.794,-2.37067 v -10.47043 l -0.70555,-0.87489 h -7.50711 l 8.29733,-8.29733 z m -8.5019,-3.55598 h 3.55599 l 2.59645,-2.20133 -0.53622,-0.64911 h -3.556 l -2.59644,2.20133 z m -8.46666,0 h 3.55599 l 2.59645,-2.20133 -0.53622,-0.64911 h -3.556 l -2.59644,2.20133 z m 47.04638,3.55598 h -3.66889 l -9.42621,9.42622 h -7.93044 v -9.59555 l -0.73378,-0.87489 -2.794,2.37067 v 10.47043 l 0.73378,0.87489 h 7.47888 l -8.2691,8.26911 v 1.12888 h 3.66888 l 9.398,-9.39799 h 7.93044 v 9.59555 l 0.73377,0.87489 2.794,-2.37067 v -10.47043 l -0.70555,-0.87489 h -7.50711 l 8.29733,-8.29733 z m -8.50192,-3.55598 h 3.556 l 2.59644,-2.20133 -0.53622,-0.64911 h -3.556 l -2.59644,2.20133 z m -8.46666,0 h 3.556 l 2.59644,-2.20133 -0.53622,-0.64911 h -3.556 l -2.59644,2.20133 z m 13.29263,-3.07625 c 0,0 -2.54,0.56444 -3.97933,1.74977 l -0.93133,0.79022 -0.0565,-0.0564 c -1.07244,-1.29822 -5.81377,-2.48355 -5.81377,-2.48355 l -2.59644,2.20133 0.53622,0.64911 c 0,0 4.00755,0.95955 5.50333,2.14489 l 0.508,0.62088 2.31422,-1.94733 c 1.24177,-0.56444 2.45533,-0.81844 2.45533,-0.81844 l 2.59644,-2.20133 z m 9.87777,29.77444 h 20.94087 l 2.82222,-2.37067 -0.73377,-0.87488 h -17.97755 l 18.73954,-18.71132 v -1.12889 h -0.31044 l 0.28222,-0.22578 -0.73377,-0.87489 h -20.94088 l -2.79399,2.37067 0.70555,0.84666 h 17.97754 l -18.71132,18.73954 v 1.12889 h 0.28222 l -0.25399,0.22578 z m 15.37408,-26.69819 h 3.556 l 2.59644,-2.20133 -0.53622,-0.64911 h -3.556 l -2.59644,2.20133 z m -8.46666,0 h 3.556 l 2.59644,-2.20133 -0.53622,-0.64911 h -3.556 l -2.59644,2.20133 z m 23.08573,26.69819 h 20.94087 l 2.82222,-2.37067 -0.73378,-0.87488 h -17.97754 l 18.73954,-18.71132 v -1.12889 h -0.31044 l 0.28222,-0.22578 -0.73378,-0.87489 H 248.7379 l -2.794,2.37067 0.70556,0.84666 H 264.627 l -18.71132,18.73954 v 1.12889 h 0.28222 l -0.254,0.22578 z m 20.20005,-29.77444 c 0,0 -2.54,0.56444 -3.97933,1.74977 l -0.93133,0.79022 -0.0564,-0.0564 c -1.07244,-1.29822 -5.81377,-2.48355 -5.81377,-2.48355 l -2.59644,2.20133 0.53622,0.64911 c 0,0 4.00755,0.95955 5.50333,2.14489 l 0.508,0.62088 2.31422,-1.94733 c 1.24177,-0.56444 2.45533,-0.81844 2.45533,-0.81844 l 2.59644,-2.20133 z"
         id="path26" />
    </g>
  </g>
</svg>
